<svg width="45" height="45" viewBox="0 0 45 45" fill="none" xmlns="http://www.w3.org/2000/svg">
<path d="M22.5 45C34.9264 45 45 34.9264 45 22.5C45 10.0736 34.9264 0 22.5 0C10.0736 0 0 10.0736 0 22.5C0 34.9264 10.0736 45 22.5 45Z" fill="#F7435C"/>
<path d="M12 12.1875C10.7794 12.1875 9.75866 13.0313 9.46729 14.1614L22.5 22.3286L35.5404 14.1844C35.2569 13.0413 34.2298 12.1875 33 12.1875H12ZM9.375 17.0889V30.5625C9.375 32.0102 10.5523 33.1875 12 33.1875H33C34.4477 33.1875 35.625 32.0102 35.625 30.5625V17.1171L22.5 25.3125L9.375 17.0889Z" fill="white"/>
</svg>
