<svg width="45" height="45" viewBox="0 0 45 45" fill="none" xmlns="http://www.w3.org/2000/svg">
<path d="M22.5 45C34.9264 45 45 34.9264 45 22.5C45 10.0736 34.9264 0 22.5 0C10.0736 0 0 10.0736 0 22.5C0 34.9264 10.0736 45 22.5 45Z" fill="#25D366"/>
<path fill-rule="evenodd" clip-rule="evenodd" d="M23.2416 35.018H23.2361C20.9969 35.0172 18.7967 34.4554 16.8425 33.3895L9.75 35.25L11.6481 28.317C10.4772 26.288 9.86117 23.9864 9.86217 21.6284C9.86511 14.2516 15.867 8.25 23.2415 8.25C26.8206 8.25154 30.1798 9.64487 32.7058 12.1738C35.2318 14.7026 36.6222 18.0641 36.6208 21.6389C36.6178 29.014 30.6183 35.015 23.2416 35.018ZM17.1711 30.9674L17.5772 31.2084C19.2845 32.2216 21.2417 32.7577 23.2371 32.7584H23.2416C29.3708 32.7584 34.3593 27.7698 34.3617 21.6381C34.3629 18.6668 33.2073 15.8729 31.1078 13.7709C29.0083 11.669 26.2162 10.5108 23.246 10.5098C17.1121 10.5098 12.1235 15.4979 12.1211 21.6291C12.1202 23.7303 12.7082 25.7767 13.8213 27.5472L14.0857 27.9679L12.9623 32.0714L17.1711 30.9674ZM29.5241 24.5194C29.7573 24.6321 29.9147 24.7082 29.982 24.8204C30.0655 24.9598 30.0655 25.6292 29.7871 26.4102C29.5084 27.191 28.1729 27.9037 27.5305 27.9997C26.9546 28.0858 26.2258 28.1217 25.425 27.8672C24.9394 27.7132 24.3168 27.5075 23.5192 27.163C20.3851 25.8098 18.2672 22.7722 17.8669 22.1981C17.8389 22.1579 17.8193 22.1298 17.8083 22.1152L17.8056 22.1116C17.6287 21.8756 16.4433 20.2939 16.4433 18.657C16.4433 17.1171 17.1997 16.31 17.5479 15.9385C17.5717 15.913 17.5937 15.8896 17.6133 15.8681C17.9197 15.5334 18.2819 15.4498 18.5048 15.4498C18.7276 15.4498 18.9507 15.4518 19.1455 15.4616C19.1695 15.4628 19.1945 15.4627 19.2204 15.4625C19.4152 15.4614 19.6581 15.46 19.8977 16.0355C19.9898 16.257 20.1247 16.5853 20.267 16.9316C20.5546 17.6319 20.8725 18.4057 20.9284 18.5177C21.012 18.685 21.0677 18.8802 20.9562 19.1034C20.9395 19.1369 20.924 19.1684 20.9093 19.1986C20.8256 19.3695 20.764 19.4952 20.622 19.661C20.5661 19.7263 20.5084 19.7966 20.4506 19.8669C20.3356 20.0069 20.2206 20.147 20.1205 20.2467C19.9531 20.4134 19.7789 20.5943 19.9739 20.929C20.1689 21.2637 20.8399 22.3584 21.8337 23.2448C22.902 24.1977 23.8305 24.6005 24.3011 24.8046C24.393 24.8445 24.4675 24.8768 24.5221 24.9041C24.8562 25.0715 25.0513 25.0435 25.2463 24.8204C25.4413 24.5973 26.082 23.8442 26.3048 23.5096C26.5276 23.1751 26.7506 23.2308 27.0569 23.3423C27.3634 23.454 29.007 24.2626 29.3413 24.4299C29.4066 24.4626 29.4676 24.4921 29.5241 24.5194Z" fill="#FDFDFD"/>
</svg>
