<svg width="80" height="80" viewBox="0 0 80 80" fill="none" xmlns="http://www.w3.org/2000/svg">
<path d="M43.9084 0V8.10003C61.5119 10.2654 73.9827 26.2649 71.8174 43.8685C69.9728 58.4645 58.5044 70.0532 43.9084 71.7775V79.7973C65.9629 77.5918 82.0025 58.0234 79.7971 35.9689C77.9926 16.9218 62.8753 1.88466 43.9084 0ZM35.8885 0.120297C28.0692 0.882181 20.6108 3.88962 14.5157 8.94211L20.2499 14.8768C24.741 11.2679 30.1544 8.94211 35.8885 8.14012V0.120297ZM8.86173 14.5961C3.84795 20.6805 0.76251 28.1219 -0.000183105 35.9689H8.01964C8.78153 30.2748 11.0271 24.8615 14.5959 20.3303L8.86173 14.5961ZM0.039916 43.9888C0.841899 51.8482 3.92953 59.2665 8.90182 65.3616L14.5959 59.6274C11.0549 55.0946 8.79738 49.6933 8.05974 43.9888H0.039916ZM20.2499 65.522L14.5157 71.0156C20.5898 76.0789 28.0262 79.232 35.8885 80.078V72.0581C30.184 71.3205 24.7827 69.063 20.2499 65.522ZM41.9034 19.9293V40.9813L59.948 51.6878L56.9406 56.62L35.8885 43.9888V19.9293H41.9034Z" fill="#EAB702"/>
</svg>
