<svg width="31" height="30" viewBox="0 0 31 30" fill="none" xmlns="http://www.w3.org/2000/svg">
<path d="M9.01165 14.595C9.16661 14.7498 9.28954 14.9336 9.37341 15.1359C9.45729 15.3383 9.50046 15.5551 9.50046 15.7742C9.50046 15.9932 9.45729 16.2101 9.37341 16.4124C9.28954 16.6147 9.16661 16.7985 9.01165 16.9533L5.96665 20H22C22.442 20 22.8659 20.1756 23.1785 20.4881C23.4911 20.8007 23.6666 21.2246 23.6666 21.6667C23.6666 22.1087 23.4911 22.5326 23.1785 22.8452C22.8659 23.1577 22.442 23.3333 22 23.3333H5.96665L9.01331 26.38C9.16816 26.5347 9.29102 26.7185 9.37487 26.9207C9.45871 27.1229 9.50191 27.3397 9.50198 27.5586C9.50206 27.7775 9.45902 27.9943 9.37532 28.1966C9.29161 28.3988 9.16889 28.5826 9.01415 28.7375C8.85941 28.8923 8.67568 29.0152 8.47346 29.099C8.27124 29.1829 8.05449 29.2261 7.83557 29.2262C7.61666 29.2262 7.39987 29.1832 7.19759 29.0995C6.99531 29.0158 6.8115 28.8931 6.65665 28.7383L0.763314 22.845C0.450863 22.5324 0.275337 22.1086 0.275337 21.6667C0.275337 21.2247 0.450863 20.8009 0.763314 20.4883L6.65665 14.595C6.96919 14.2825 7.39304 14.107 7.83498 14.107C8.27692 14.107 8.70077 14.2825 9.01331 14.595H9.01165ZM21.655 1.26166C21.942 0.9747 22.3238 0.802315 22.7288 0.776847C23.1339 0.751378 23.5343 0.874576 23.855 1.12333L24.0116 1.26166L29.905 7.155C30.1919 7.44198 30.3643 7.82382 30.3898 8.22886C30.4153 8.6339 30.2921 9.03432 30.0433 9.35499L29.905 9.51166L24.0116 15.4033C23.7117 15.7022 23.3093 15.8758 22.886 15.8887C22.4628 15.9016 22.0505 15.753 21.7328 15.4729C21.4152 15.1929 21.2161 14.8024 21.176 14.3809C21.1358 13.9593 21.2576 13.5383 21.5166 13.2033L21.655 13.0467L24.7 10H8.66665C8.24185 9.99952 7.83326 9.83686 7.52437 9.54525C7.21547 9.25363 7.02959 8.85507 7.00469 8.431C6.9798 8.00693 7.11777 7.58936 7.39042 7.26361C7.66307 6.93785 8.04982 6.7285 8.47165 6.67833L8.66665 6.66666H24.7016L21.655 3.61666C21.3425 3.30412 21.167 2.88027 21.167 2.43833C21.167 1.99639 21.3425 1.57254 21.655 1.26V1.26166Z" fill="#6EAB20"/>
</svg>
