<?xml version="1.0" encoding="utf-8"?>
<!-- Generator: Adobe Illustrator 25.3.1, SVG Export Plug-In . SVG Version: 6.00 Build 0)  -->
<svg version="1.1" id="Layer_2" xmlns="http://www.w3.org/2000/svg" xmlns:xlink="http://www.w3.org/1999/xlink" x="0px" y="0px"
	 viewBox="0 0 464 401.3" style="enable-background:new 0 0 464 401.3;" xml:space="preserve">
<style type="text/css">
	.st0{fill:none;stroke:#000000;stroke-width:20;stroke-linecap:round;stroke-miterlimit:10;}
	.st1{fill:none;stroke:#000000;stroke-width:14;stroke-linecap:round;stroke-miterlimit:10;}
</style>
<path class="st0" d="M-1734.1,223.8l129.9,129.9c6.8,6.8,17.7,6.8,24.5,0l281.9-281.9"/>
<path class="st1" d="M-850.9,22.7h384.1c9.9,0,18,8.1,18,18v176.1c0,4.5-3.7,8.2-8.2,8.2h-384.1c-9.9,0-18-8.1-18-18V30.9
	C-859.1,26.3-855.5,22.7-850.9,22.7z"/>
<line class="st1" x1="-653.8" y1="283.3" x2="-653.8" y2="422.3"/>
<path class="st1" d="M-716.4,367.8l59.2,57.8c1.9,1.9,5,1.9,7,0l59.6-58.2"/>
<circle class="st1" cx="-656.5" cy="122" r="42.3"/>
<path class="st1" d="M443.5,309.4H22.3c-6.4,0-11.5-5.2-11.5-11.5V105.3c0-6.4,5.2-11.5,11.5-11.5h421.2c6.4,0,11.5,5.2,11.5,11.5
	v192.5C455.1,304.2,449.9,309.4,443.5,309.4z"/>
<polyline class="st1" points="43.2,157.8 43.2,125 74.8,125 "/>
<polyline class="st1" points="76,277.3 43.2,277.3 43.2,245.7 "/>
<polyline class="st1" points="425.2,157.8 425.2,125 393.6,125 "/>
<polyline class="st1" points="392.3,277.3 425.2,277.3 425.2,245.7 "/>
<circle class="st1" cx="233.5" cy="201" r="105.3"/>
<path class="st1" d="M43.5,334.6l18.2,54.2c1,2.9,4.2,4.5,7.1,3.5l166.7-57.7"/>
<path class="st1" d="M425.6,68l-18.2-54.2c-1-2.9-4.2-4.5-7.1-3.5L233.7,68"/>
<g>
	<path d="M227.2,263.4v-12c-7.7-0.1-15.5-2-21.5-4.8c-2.9-1.4-4.3-4.7-3.2-7.7l0,0c1.2-3.4,5-5,8.3-3.5c5.5,2.5,12.1,4.2,19.1,4.2
		c12.3,0,20.6-7.1,20.6-17c0-9.5-6.7-15.4-19.6-20.6c-17.7-6.9-28.6-14.9-28.6-29.9c0-14.4,10.2-25.3,26.1-27.9v-12.1
		c0-3,2.4-5.4,5.4-5.4h0c3,0,5.4,2.4,5.4,5.4v11.4c7.2,0.2,12.8,1.6,17.2,3.4c3,1.2,4.5,4.7,3.3,7.8v0c-1.2,3.2-4.8,4.8-7.9,3.5
		c-3.9-1.6-9.3-3.1-16.2-3.1c-13.3,0-18.3,8-18.3,14.9c0,9,6.4,13.5,21.5,19.7c17.8,7.3,26.8,16.3,26.8,31.7
		c0,13.7-9.5,26.5-27.3,29.4v12.5c0,3-2.4,5.5-5.5,5.5h0C229.6,268.8,227.2,266.4,227.2,263.4z"/>
</g>
<path d="M234.1,143.3h-1.5c-2.6,0-4.7,2.1-4.7,4.7v96.6c0,2.6,2.1,4.7,4.7,4.7h1.5c2.6,0,4.7-2.1,4.7-4.7V148
	C238.8,145.4,236.7,143.3,234.1,143.3z"/>
<path class="st0" d="M-1734.1-373.8l129.9,129.9c6.8,6.8,17.7,6.8,24.5,0l281.9-281.9"/>
<path class="st1" d="M-850.9-575h384.1c9.9,0,18,8.1,18,18v176.1c0,4.5-3.7,8.2-8.2,8.2h-384.1c-9.9,0-18-8.1-18-18v-176.1
	C-859.1-571.3-855.5-575-850.9-575z"/>
<line class="st1" x1="-653.8" y1="-314.4" x2="-653.8" y2="-175.4"/>
<path class="st1" d="M-716.4-229.8l59.2,57.8c1.9,1.9,5,1.9,7,0l59.6-58.2"/>
<circle class="st1" cx="-656.5" cy="-475.6" r="42.3"/>
<path class="st1" d="M443.5-310.3H22.3c-6.4,0-11.5-5.2-11.5-11.5v-192.5c0-6.4,5.2-11.5,11.5-11.5h421.2c6.4,0,11.5,5.2,11.5,11.5
	v192.5C455.1-315.4,449.9-310.3,443.5-310.3z"/>
<polyline class="st1" points="43.2,-461.9 43.2,-494.7 74.8,-494.7 "/>
<polyline class="st1" points="76,-342.4 43.2,-342.4 43.2,-374 "/>
<circle class="st1" cx="233.5" cy="-418.7" r="105.3"/>
<path class="st1" d="M43.5-285l18.2,54.2c1,2.9,4.2,4.5,7.1,3.5L235.4-285"/>
<path class="st1" d="M425.6-551.7l-18.2-54.2c-1-2.9-4.2-4.5-7.1-3.5l-166.7,57.7"/>
<g>
	<path d="M227.2-356.3v-12c-7.7-0.1-15.5-2-21.5-4.8c-2.9-1.4-4.3-4.7-3.2-7.7h0c1.2-3.4,5-5,8.3-3.5c5.5,2.5,12.1,4.2,19.1,4.2
		c12.3,0,20.6-7.1,20.6-17c0-9.5-6.7-15.4-19.6-20.6c-17.7-6.9-28.6-14.9-28.6-29.9c0-14.4,10.2-25.3,26.1-27.9v-12.1
		c0-3,2.4-5.4,5.4-5.4h0c3,0,5.4,2.4,5.4,5.4v11.4c7.2,0.2,12.8,1.6,17.2,3.4c3,1.2,4.5,4.7,3.3,7.8l0,0c-1.2,3.2-4.8,4.8-7.9,3.5
		c-3.9-1.6-9.3-3.1-16.2-3.1c-13.3,0-18.3,8-18.3,14.9c0,9,6.4,13.5,21.5,19.7c17.8,7.3,26.8,16.3,26.8,31.7
		c0,13.7-9.5,26.5-27.3,29.4v12.5c0,3-2.4,5.5-5.5,5.5h0C229.6-350.9,227.2-353.3,227.2-356.3z"/>
</g>
<path d="M234.1-476.4h-1.5c-2.6,0-4.7,2.1-4.7,4.7v96.6c0,2.6,2.1,4.7,4.7,4.7h1.5c2.6,0,4.7-2.1,4.7-4.7v-96.6
	C238.8-474.3,236.7-476.4,234.1-476.4z"/>
</svg>
