<svg width="16" height="16" viewBox="0 0 16 16" fill="none" xmlns="http://www.w3.org/2000/svg">
<g clip-path="url(#clip0_2070_8355)">
<path d="M13.3148 2.7165C11.9156 1.3173 10.0178 0.531242 8.03907 0.531242C6.06031 0.531242 4.16259 1.3173 2.76339 2.7165C1.36419 4.1157 0.578125 6.01342 0.578125 7.99219C0.578125 9.97096 1.36419 11.8687 2.76339 13.2679C4.16259 14.6671 6.06031 15.4531 8.03907 15.4531C10.0178 15.4531 11.9156 14.6671 13.3148 13.2679C14.714 11.8687 15.5 9.97096 15.5 7.99219C15.5 6.01342 14.714 4.1157 13.3148 2.7165ZM8.03907 14.4531C4.47657 14.4531 1.57814 11.5548 1.57814 7.99219C1.57814 4.42963 4.47651 1.53125 8.03907 1.53125C11.6016 1.53125 14.5 4.42963 14.5 7.99219C14.5 11.5548 11.6016 14.4531 8.03907 14.4531Z" fill="white"/>
<path d="M6.91482 9.5565L4.62067 7.26238L3.91357 7.96947L6.91482 10.9707L12.1492 5.73638L11.4421 5.02928L6.91482 9.5565Z" fill="white"/>
</g>
<defs>
<clipPath id="clip0_2070_8355">
<rect width="16" height="16" fill="white"/>
</clipPath>
</defs>
</svg>
