<svg width="46" height="45" viewBox="0 0 46 45" fill="none" xmlns="http://www.w3.org/2000/svg">
    <path d="M21.2188 9.9375H24.8V22.4625H21.2188V9.9375Z" fill="url(#paint0_linear_4079_17215)" />
    <path
        d="M23 42.8814L16.8875 36.7689H10.475C8.10449 36.7639 5.83249 35.82 4.15629 34.1438C2.48008 32.4676 1.5362 30.1956 1.53125 27.8251V9.9376C1.53124 7.56384 2.47293 5.28703 4.14967 3.60677C5.82641 1.92652 8.10125 0.980064 10.475 0.975098H35.525C37.8988 0.980064 40.1736 1.92652 41.8503 3.60677C43.5271 5.28703 44.4688 7.56384 44.4688 9.9376V27.8251C44.4638 30.1956 43.5199 32.4676 41.8437 34.1438C40.1675 35.82 37.8955 36.7639 35.525 36.7689H29.1125L23 42.8814ZM10.475 4.55635C9.04932 4.56129 7.68345 5.12983 6.67534 6.13794C5.66723 7.14605 5.09869 8.51192 5.09375 9.9376V27.8251C5.09869 29.2508 5.66723 30.6166 6.67534 31.6248C7.68345 32.6329 9.04932 33.2014 10.475 33.2063H18.3687L23 37.8188L27.6313 33.2063H35.525C36.9507 33.2014 38.3166 32.6329 39.3247 31.6248C40.3328 30.6166 40.9013 29.2508 40.9062 27.8251V9.9376C40.9013 8.51192 40.3328 7.14605 39.3247 6.13794C38.3166 5.12983 36.9507 4.56129 35.525 4.55635H10.475Z"
        fill="url(#paint1_linear_4079_17215)" />
    <path d="M21.2188 24.2437H24.8V27.8249H21.2188V24.2437Z" fill="url(#paint2_linear_4079_17215)" />
    <defs>
        <linearGradient id="paint0_linear_4079_17215" x1="21.4247" y1="11.7562" x2="24.9446"
            y2="11.9193" gradientUnits="userSpaceOnUse">
            <stop stop-color="#F7435C" />
            <stop offset="1" stop-color="#FD8B64" />
        </linearGradient>
        <linearGradient id="paint1_linear_4079_17215" x1="4.00087" y1="7.06023" x2="45.1587"
            y2="13.8936" gradientUnits="userSpaceOnUse">
            <stop stop-color="#F7435C" />
            <stop offset="1" stop-color="#FD8B64" />
        </linearGradient>
        <linearGradient id="paint2_linear_4079_17215" x1="21.4247" y1="24.7637" x2="24.8619"
            y2="25.3206" gradientUnits="userSpaceOnUse">
            <stop stop-color="#F7435C" />
            <stop offset="1" stop-color="#FD8B64" />
        </linearGradient>
    </defs>
</svg>
    