<?xml version="1.0" encoding="utf-8"?>
<!-- Generator: Adobe Illustrator 25.3.1, SVG Export Plug-In . SVG Version: 6.00 Build 0)  -->
<svg version="1.1" id="Layer_2" xmlns="http://www.w3.org/2000/svg" xmlns:xlink="http://www.w3.org/1999/xlink" x="0px" y="0px"
	 viewBox="0 0 707.1 474.1" style="enable-background:new 0 0 707.1 474.1;" xml:space="preserve">
<style type="text/css">
	.st0{fill:none;stroke:#000000;stroke-width:20;stroke-linecap:round;stroke-miterlimit:10;}
	.st1{fill:none;stroke:#000000;stroke-width:14;stroke-linecap:round;stroke-miterlimit:10;}
</style>
<path class="st0" d="M161.9,260.2l129.9,129.9c6.8,6.8,17.7,6.8,24.5,0l281.9-281.9"/>
<path class="st1" d="M1045.1,59.1h384.1c9.9,0,18,8.1,18,18v176.1c0,4.5-3.7,8.2-8.2,8.2h-384.1c-9.9,0-18-8.1-18-18V67.3
	C1036.9,62.7,1040.5,59.1,1045.1,59.1z"/>
<line class="st1" x1="1242.2" y1="319.7" x2="1242.2" y2="458.7"/>
<path class="st1" d="M1179.6,404.2l59.2,57.8c1.9,1.9,5,1.9,7,0l59.6-58.2"/>
<circle class="st1" cx="1239.5" cy="158.4" r="42.3"/>
<path class="st1" d="M2339.5,323.8h-421.2c-6.4,0-11.5-5.2-11.5-11.5V119.7c0-6.4,5.2-11.5,11.5-11.5h421.2
	c6.4,0,11.5,5.2,11.5,11.5v192.5C2351.1,318.6,2345.9,323.8,2339.5,323.8z"/>
<polyline class="st1" points="1939.2,172.2 1939.2,139.3 1970.8,139.3 "/>
<polyline class="st1" points="1972,291.7 1939.2,291.7 1939.2,260.1 "/>
<polyline class="st1" points="2321.2,172.2 2321.2,139.3 2289.6,139.3 "/>
<polyline class="st1" points="2288.4,291.7 2321.2,291.7 2321.2,260.1 "/>
<circle class="st1" cx="2129.5" cy="215.4" r="105.3"/>
<path class="st1" d="M1939.5,349l18.2,54.2c1,2.9,4.2,4.5,7.1,3.5l166.7-57.7"/>
<path class="st1" d="M2321.6,82.4l-18.2-54.2c-1-2.9-4.2-4.5-7.1-3.5l-166.7,57.7"/>
<g>
	<path d="M2123.2,277.8v-12c-7.7-0.1-15.5-2-21.5-4.8c-2.9-1.4-4.3-4.7-3.2-7.7l0,0c1.2-3.4,5-5,8.3-3.5c5.5,2.5,12.1,4.2,19.1,4.2
		c12.3,0,20.6-7.1,20.6-17c0-9.5-6.7-15.4-19.6-20.6c-17.7-6.9-28.6-14.9-28.6-29.9c0-14.4,10.2-25.3,26.1-27.9v-12.1
		c0-3,2.4-5.4,5.4-5.4l0,0c3,0,5.4,2.4,5.4,5.4v11.4c7.2,0.2,12.8,1.6,17.2,3.4c3,1.2,4.5,4.7,3.3,7.8v0c-1.2,3.2-4.8,4.8-7.9,3.5
		c-3.9-1.6-9.3-3.1-16.2-3.1c-13.3,0-18.3,8-18.3,14.9c0,9,6.4,13.5,21.5,19.7c17.8,7.3,26.8,16.3,26.8,31.7
		c0,13.7-9.5,26.5-27.3,29.4v12.5c0,3-2.4,5.5-5.5,5.5l0,0C2125.6,283.2,2123.2,280.8,2123.2,277.8z"/>
</g>
<path d="M2130.1,157.7h-1.5c-2.6,0-4.7,2.1-4.7,4.7v96.6c0,2.6,2.1,4.7,4.7,4.7h1.5c2.6,0,4.7-2.1,4.7-4.7v-96.6
	C2134.8,159.8,2132.7,157.7,2130.1,157.7z"/>
<path class="st0" d="M161.9-337.5l129.9,129.9c6.8,6.8,17.7,6.8,24.5,0l281.9-281.9"/>
<path class="st1" d="M1045.1-538.6h384.1c9.9,0,18,8.1,18,18v176.1c0,4.5-3.7,8.2-8.2,8.2h-384.1c-9.9,0-18-8.1-18-18v-176.1
	C1036.9-534.9,1040.5-538.6,1045.1-538.6z"/>
<line class="st1" x1="1242.2" y1="-278" x2="1242.2" y2="-139"/>
<path class="st1" d="M1179.6-193.5l59.2,57.8c1.9,1.9,5,1.9,7,0l59.6-58.2"/>
<circle class="st1" cx="1239.5" cy="-439.3" r="42.3"/>
<path class="st1" d="M2339.5-273.9h-421.2c-6.4,0-11.5-5.2-11.5-11.5V-478c0-6.4,5.2-11.5,11.5-11.5h421.2c6.4,0,11.5,5.2,11.5,11.5
	v192.5C2351.1-279,2345.9-273.9,2339.5-273.9z"/>
<polyline class="st1" points="1939.2,-425.5 1939.2,-458.3 1970.8,-458.3 "/>
<polyline class="st1" points="1972,-306 1939.2,-306 1939.2,-337.6 "/>
<circle class="st1" cx="2129.5" cy="-382.3" r="105.3"/>
<path class="st1" d="M1939.5-248.6l18.2,54.2c1,2.9,4.2,4.5,7.1,3.5l166.7-57.7"/>
<path class="st1" d="M2321.6-515.3l-18.2-54.2c-1-2.9-4.2-4.5-7.1-3.5l-166.7,57.7"/>
<g>
	<path d="M2123.2-319.9v-12c-7.7-0.1-15.5-2-21.5-4.8c-2.9-1.4-4.3-4.7-3.2-7.7l0,0c1.2-3.4,5-5,8.3-3.5c5.5,2.5,12.1,4.2,19.1,4.2
		c12.3,0,20.6-7.1,20.6-17c0-9.5-6.7-15.4-19.6-20.6c-17.7-6.9-28.6-14.9-28.6-29.9c0-14.4,10.2-25.3,26.1-27.9v-12.1
		c0-3,2.4-5.4,5.4-5.4l0,0c3,0,5.4,2.4,5.4,5.4v11.4c7.2,0.2,12.8,1.6,17.2,3.4c3,1.2,4.5,4.7,3.3,7.8v0c-1.2,3.2-4.8,4.8-7.9,3.5
		c-3.9-1.6-9.3-3.1-16.2-3.1c-13.3,0-18.3,8-18.3,14.9c0,9,6.4,13.5,21.5,19.7c17.8,7.3,26.8,16.3,26.8,31.7
		c0,13.7-9.5,26.5-27.3,29.4v12.5c0,3-2.4,5.5-5.5,5.5l0,0C2125.6-314.5,2123.2-316.9,2123.2-319.9z"/>
</g>
<path d="M2130.1-440h-1.5c-2.6,0-4.7,2.1-4.7,4.7v96.6c0,2.6,2.1,4.7,4.7,4.7h1.5c2.6,0,4.7-2.1,4.7-4.7v-96.6
	C2134.8-437.9,2132.7-440,2130.1-440z"/>
</svg>
