<svg width="40" height="40" viewBox="0 0 40 40" fill="none" xmlns="http://www.w3.org/2000/svg">
<path d="M33.2869 6.79125C29.7889 3.29325 25.0446 1.32809 20.0977 1.32809C15.1508 1.32809 10.4065 3.29325 6.90847 6.79125C3.41047 10.2892 1.44531 15.0336 1.44531 19.9805C1.44531 24.9274 3.41047 29.6717 6.90847 33.1697C10.4065 36.6677 15.1508 38.6328 20.0977 38.6328C25.0446 38.6328 29.7889 36.6677 33.2869 33.1697C36.7849 29.6717 38.7501 24.9274 38.7501 19.9805C38.7501 15.0336 36.7849 10.2892 33.2869 6.79125V6.79125ZM20.0977 36.1328C11.1914 36.1328 3.94534 28.8869 3.94534 19.9805C3.94534 11.0741 11.1913 3.82812 20.0977 3.82812C29.0041 3.82812 36.25 11.0741 36.25 19.9805C36.25 28.8869 29.0041 36.1328 20.0977 36.1328Z" fill="url(#paint0_linear_3169_6203)"/>
<path d="M17.2867 23.8912L11.5513 18.1559L9.78357 19.9237L17.2867 27.4268L30.3726 14.3409L28.6048 12.5732L17.2867 23.8912Z" fill="url(#paint1_linear_3169_6203)"/>
<defs>
<linearGradient id="paint0_linear_3169_6203" x1="3.59096" y1="6.74505" x2="39.395" y2="12.5468" gradientUnits="userSpaceOnUse">
<stop stop-color="#F7435C"/>
<stop offset="1" stop-color="#FD8B64"/>
</linearGradient>
<linearGradient id="paint1_linear_3169_6203" x1="10.9678" y1="14.7301" x2="30.2735" y2="19.0663" gradientUnits="userSpaceOnUse">
<stop stop-color="#F7435C"/>
<stop offset="1" stop-color="#FD8B64"/>
</linearGradient>
</defs>
</svg>
