<svg width="32" height="30" viewBox="0 0 32 30" fill="none" xmlns="http://www.w3.org/2000/svg">
<path d="M21.5 17.9167C21.5 17.5851 21.6317 17.2672 21.8661 17.0328C22.1005 16.7984 22.4184 16.6667 22.75 16.6667H26.0833C26.4148 16.6667 26.7328 16.7984 26.9672 17.0328C27.2016 17.2672 27.3333 17.5851 27.3333 17.9167C27.3333 18.2482 27.2016 18.5661 26.9672 18.8005C26.7328 19.035 26.4148 19.1667 26.0833 19.1667H22.75C22.4184 19.1667 22.1005 19.035 21.8661 18.8005C21.6317 18.5661 21.5 18.2482 21.5 17.9167ZM0.666626 3.33333H0.689959C0.792448 2.41665 1.22919 1.56989 1.9167 0.954953C2.6042 0.340012 3.49423 2.78677e-05 4.41663 0H23.5833C24.0758 0 24.5634 0.0969967 25.0184 0.285452C25.4733 0.473907 25.8867 0.75013 26.2349 1.09835C26.5832 1.44657 26.8594 1.85997 27.0478 2.31494C27.2363 2.76991 27.3333 3.25754 27.3333 3.75V5.145C28.5197 5.42668 29.5764 6.10031 30.3325 7.05694C31.0886 8.01358 31.4999 9.1973 31.5 10.4167V24.5833C31.5 26.0199 30.9293 27.3977 29.9135 28.4135C28.8976 29.4293 27.5199 30 26.0833 30H6.08329C4.6467 30 3.26895 29.4293 2.25313 28.4135C1.23731 27.3977 0.666626 26.0199 0.666626 24.5833V3.33333ZM26.0833 7.5H3.16663V24.5833C3.16663 26.1933 4.47329 27.5 6.08329 27.5H26.0833C26.8568 27.5 27.5987 27.1927 28.1457 26.6457C28.6927 26.0987 29 25.3569 29 24.5833V10.4167C29 9.64312 28.6927 8.90125 28.1457 8.35427C27.5987 7.80729 26.8568 7.5 26.0833 7.5ZM24.8333 5V3.75C24.8333 3.41848 24.7016 3.10054 24.4672 2.86612C24.2328 2.6317 23.9148 2.5 23.5833 2.5H4.41663C4.08511 2.5 3.76716 2.6317 3.53274 2.86612C3.29832 3.10054 3.16663 3.41848 3.16663 3.75C3.16663 4.08152 3.29832 4.39946 3.53274 4.63388C3.76716 4.8683 4.08511 5 4.41663 5H24.8333Z" fill="#6EAB20"/>
</svg>
