<svg width="12" height="12" viewBox="0 0 12 12" fill="none" xmlns="http://www.w3.org/2000/svg">
<path d="M6.96875 8.39692C6.94526 8.37366 6.91353 8.36061 6.88047 8.36061C6.84741 8.36061 6.81568 8.37366 6.79219 8.39692L4.97656 10.2125C4.13594 11.0532 2.71719 11.1422 1.78906 10.2125C0.859374 9.28286 0.948437 7.86567 1.78906 7.02505L3.60469 5.20942C3.65312 5.16099 3.65312 5.0813 3.60469 5.03286L2.98281 4.41099C2.95932 4.38772 2.92759 4.37467 2.89453 4.37467C2.86147 4.37467 2.82974 4.38772 2.80625 4.41099L0.990624 6.22661C-0.331251 7.54849 -0.331251 9.68755 0.990624 11.0079C2.3125 12.3282 4.45156 12.3297 5.77187 11.0079L7.5875 9.19224C7.63594 9.1438 7.63594 9.06411 7.5875 9.01567L6.96875 8.39692ZM11.0094 0.990674C9.6875 -0.331201 7.54844 -0.331201 6.22812 0.990674L4.41094 2.8063C4.38767 2.82979 4.37462 2.86152 4.37462 2.89458C4.37462 2.92764 4.38767 2.95937 4.41094 2.98286L5.03125 3.60317C5.07969 3.65161 5.15937 3.65161 5.20781 3.60317L7.02344 1.78755C7.86406 0.946924 9.28281 0.857861 10.2109 1.78755C11.1406 2.71724 11.0516 4.13442 10.2109 4.97505L8.39531 6.79067C8.37205 6.81417 8.359 6.84589 8.359 6.87896C8.359 6.91202 8.37205 6.94374 8.39531 6.96724L9.01719 7.58911C9.06562 7.63755 9.14531 7.63755 9.19375 7.58911L11.0094 5.77349C12.3297 4.45161 12.3297 2.31255 11.0094 0.990674ZM7.53281 3.81724C7.50932 3.79397 7.47759 3.78092 7.44453 3.78092C7.41147 3.78092 7.37974 3.79397 7.35625 3.81724L3.81719 7.35474C3.79392 7.37823 3.78087 7.40996 3.78087 7.44302C3.78087 7.47608 3.79392 7.50781 3.81719 7.5313L4.43594 8.15005C4.48437 8.19849 4.56406 8.19849 4.6125 8.15005L8.15 4.61255C8.19844 4.56411 8.19844 4.48442 8.15 4.43599L7.53281 3.81724Z" fill="white"/>
</svg>
