<svg width="100" height="38" viewBox="0 0 100 38" fill="none" xmlns="http://www.w3.org/2000/svg">
<g clip-path="url(#clip0_2755_10624)">
<path d="M47.724 0.111328C48.5873 2.01133 49.4468 3.91134 50.3179 5.81134C51.5877 8.57775 52.8691 11.3366 54.1292 14.1068C54.1654 14.1962 54.1814 14.2923 54.176 14.3884C54.1706 14.4845 54.144 14.5784 54.098 14.6635C52.5308 16.7307 50.9441 18.7827 49.3593 20.8385C49.3036 20.8909 49.2445 20.9398 49.1823 20.9848V11.7698C48.9879 11.7546 48.8343 11.7356 48.6904 11.7337C47.0453 11.7337 45.4022 11.7489 43.7572 11.7223C43.3158 11.7223 43.236 11.8743 43.236 12.2619C43.2497 16.2956 43.236 20.3293 43.236 24.363V25.0109C42.9541 24.7867 42.7616 24.6309 42.5594 24.4732C42.0324 24.0761 41.484 23.7018 40.9785 23.2781C40.8307 23.1546 40.7996 22.8981 40.6907 22.6416C40.5721 22.6777 40.4048 22.7252 40.2415 22.7765C38.5148 23.3237 36.7706 23.6657 34.9525 23.242C32.0026 22.5542 31.0634 20.0405 31.9171 17.6142C32.4771 16.0277 33.8208 15.3494 35.4444 15.1708C36.9402 15.0283 38.4472 15.2913 39.8001 15.9308L40.4068 16.2025C40.4223 16.0125 40.4457 15.8871 40.4457 15.7522C40.4457 14.7357 40.4282 13.7192 40.4593 12.7122C40.471 12.3322 40.3096 12.1726 39.9615 12.0624C38.017 11.4411 36.0297 11.4373 34.0346 11.6026C32.2508 11.7174 30.5241 12.2639 29.0101 13.1929C26.5289 14.7604 25.3155 16.9929 25.5099 19.8809C25.7044 22.8145 27.2969 24.8209 30.0076 26.0065C31.6876 26.7437 33.4707 27.0116 35.2947 27.0686C35.7614 27.0838 36.2319 27.0686 36.7375 27.0686C36.8872 28.3549 37.98 29.0579 38.6353 30.1086C37.9625 30.3195 37.3189 30.5247 36.6714 30.7223L13.806 37.7162C13.6668 37.7667 13.5305 37.8244 13.3976 37.8891H13.2032C13.18 37.7781 13.1508 37.6684 13.1157 37.5604C11.7092 33.8427 10.3059 30.1244 8.90583 26.4055C6.41168 19.7846 3.91558 13.1625 1.41754 6.53904C0.954751 5.31164 0.472514 4.08994 0 2.86633V2.67633C1.58866 2.60413 3.17732 2.54713 4.76598 2.45973C12.2445 2.04427 19.7237 1.62816 27.2036 1.21143C32.9593 0.89603 38.7157 0.586329 44.4727 0.282328C45.1533 0.246228 45.8339 0.170228 46.5145 0.111328H47.724ZM14.9941 22.3414C16.1141 22.2749 17.1719 22.2597 18.2142 22.1381C19.7698 21.9595 21.2243 21.5263 22.4921 20.5877C24.9966 18.7485 24.9985 14.4317 21.8659 12.9041C20.5293 12.2408 19.0593 11.8742 17.5608 11.8306C14.8618 11.7565 12.1609 11.7641 9.46196 11.7413C9.35634 11.7464 9.25114 11.7578 9.14695 11.7755V26.7684H14.9805V22.3414H14.9941ZM46.2053 10.2478C48.2295 10.2478 49.6062 9.10785 49.7948 7.27244C49.9757 5.54154 48.8751 4.14124 47.0278 3.80304C46.5824 3.72487 46.1276 3.71206 45.6783 3.76504C44.4805 3.90754 43.4674 4.40724 42.956 5.53014C41.9818 7.69614 43.168 10.2193 46.2053 10.2478Z" fill="#878787"/>
<path d="M45.7133 34.3116C45.1238 34.3331 44.5377 34.2143 44.0055 33.9654C43.4734 33.7165 43.0111 33.345 42.6585 32.8828C41.2799 31.1728 39.8779 29.4742 38.4856 27.7699C37.9937 27.1695 37.9198 26.7267 38.4117 26.1282C38.8912 25.586 39.4183 25.0857 39.9868 24.6329C40.3212 24.3498 40.6324 24.5436 40.9221 24.7906C42.3481 26.0142 43.774 27.2322 45.2 28.4444C45.7483 28.9118 45.8747 28.889 46.217 28.2886C49.6727 22.2071 53.8775 16.5619 58.7376 11.4792C58.9905 11.2205 59.2967 11.0172 59.636 10.8826C60.8567 10.4122 62.1628 10.1898 63.4744 10.229C63.6533 10.229 63.982 10.3354 63.9858 10.4C63.9858 10.6546 63.9858 11.0156 63.8283 11.1505C59.5679 14.7111 56.7562 19.349 53.8919 23.9356C52.0583 26.8712 50.3102 29.8599 48.6068 32.8657C48.0993 33.7587 47.3973 34.1197 46.4678 34.2508C46.215 34.2793 45.9642 34.2831 45.7133 34.3116Z" fill="#878787"/>
<path d="M66.3815 17.4754V6.30908H71.2524C74.8576 6.30908 76.9596 8.33639 76.9343 11.859C76.9354 12.6599 76.8175 13.4567 76.5843 14.2245C75.962 16.1929 74.2198 17.4184 71.9175 17.502C70.1246 17.5685 68.3279 17.5191 66.5331 17.5191C66.4811 17.5101 66.4302 17.4954 66.3815 17.4754ZM69.4032 8.83609V14.9484C70.0391 14.9484 70.6419 14.9902 71.2388 14.9484C72.8664 14.8116 73.652 14.1884 73.8698 12.8774C73.943 12.3925 73.958 11.9008 73.9145 11.4125C73.7997 9.95899 73.0686 9.17049 71.5927 8.96149C70.8869 8.85129 70.1616 8.87409 69.4032 8.83609Z" fill="#878787"/>
<path d="M78.6221 13.8029H81.5681C81.5886 13.9314 81.6178 14.0583 81.6556 14.1829C81.718 14.4011 81.8103 14.6101 81.9297 14.8043C82.5481 15.627 84.689 15.6973 85.3696 14.9316C85.7468 14.506 85.6885 13.9093 85.1479 13.6414C84.5712 13.3869 83.9758 13.1748 83.3667 13.0068C82.5442 12.7389 81.6925 12.5394 80.8914 12.2183C79.7402 11.7566 79.0091 10.9263 78.9469 9.65524C78.873 8.30054 79.4913 7.29924 80.6969 6.69503C81.5365 6.25791 82.4681 6.01639 83.419 5.98937C84.3699 5.96234 85.3143 6.15053 86.1785 6.53923C87.5396 7.10924 88.2941 8.33094 88.1891 9.61914H85.3287C84.7668 8.43544 84.024 8.06114 82.8203 8.35944C82.3692 8.46964 82.0036 8.67104 81.9531 9.18024C81.9025 9.68944 82.2759 9.92504 82.6803 10.0523C83.4912 10.3069 84.3215 10.4988 85.1362 10.7382C85.6522 10.877 86.1582 11.0491 86.651 11.2531C87.7574 11.7433 88.5274 12.509 88.5955 13.7706C88.6752 15.2014 88.1541 16.3452 86.8299 17.0406C85.5057 17.736 84.0784 17.8139 82.6239 17.6714C81.733 17.6137 80.8742 17.3237 80.1369 16.8316C79.6343 16.5014 79.2296 16.0475 78.9637 15.5158C78.6977 14.9841 78.5799 14.3933 78.6221 13.8029Z" fill="#878787"/>
<path d="M90.0305 13.8123H92.9201C93.414 15.2905 94.6507 15.8472 96.1771 15.2867C96.5893 15.1347 96.9141 14.9067 96.9549 14.4298C96.9957 13.9529 96.7002 13.6432 96.2899 13.5026C95.5121 13.2366 94.7226 13.0465 93.9468 12.7976C93.2733 12.6132 92.617 12.3736 91.9847 12.0813C89.8458 10.9774 89.7116 8.25664 91.6892 6.90194C93.3731 5.74863 96.3929 5.70113 98.0866 6.82784C99.0744 7.48524 99.6247 8.38774 99.5897 9.62084H96.6963C96.2121 8.45804 95.2846 8.01344 94.0848 8.38014C93.6959 8.49794 93.3887 8.70504 93.3303 9.14014C93.272 9.57524 93.5559 9.86974 93.9351 9.99324C94.7907 10.2668 95.6696 10.4739 96.5291 10.7361C97.1061 10.9006 97.6712 11.1024 98.2208 11.3403C100.797 12.5107 100.276 15.7693 98.5436 16.8504C97.7546 17.3206 96.8632 17.6025 95.9418 17.6731C94.6584 17.8061 93.3926 17.7301 92.1967 17.2114C90.7286 16.5749 89.8847 15.2392 90.0305 13.8123Z" fill="#878787"/>
<path d="M95.969 19.7936C96.6749 19.7936 97.3438 19.7537 98.0069 19.7936C99.1055 19.8715 99.7725 20.66 99.7667 21.7981C99.7608 22.9362 99.1094 23.7209 98.0069 23.7988C97.3438 23.8463 96.673 23.7988 95.969 23.7988V19.7936ZM97.0307 22.9305C97.6141 22.9305 98.1974 23.0445 98.5144 22.4916C98.6513 22.2734 98.7187 22.0202 98.708 21.7645C98.6973 21.5087 98.6089 21.2618 98.4541 21.0552C98.1022 20.5821 97.5694 20.6448 97.0307 20.7075V22.9305Z" fill="#878787"/>
<path d="M78.2838 21.9369C79.0169 22.4214 78.7155 23.1719 78.9566 23.7837C78.8672 23.7998 78.7769 23.8112 78.6863 23.8179C77.8968 23.835 77.8968 23.835 77.7899 23.0826C77.6829 22.3302 77.4788 22.2504 76.3782 22.3891V23.7818H75.3281V19.8051C76.1332 19.8051 76.9323 19.7747 77.7296 19.8165C78.2157 19.8431 78.6571 20.0673 78.803 20.5765C78.8917 20.8269 78.8884 21.0996 78.7937 21.3479C78.6989 21.5962 78.5186 21.8044 78.2838 21.9369ZM76.3879 21.5569H77.2435C77.3109 21.5627 77.3789 21.5551 77.4433 21.5346C77.5076 21.5141 77.5671 21.481 77.618 21.4375C77.669 21.3939 77.7104 21.3407 77.7397 21.281C77.7691 21.2214 77.7858 21.1566 77.7888 21.0905C77.7918 21.0244 77.7811 20.9584 77.7573 20.8964C77.7335 20.8345 77.6971 20.7779 77.6504 20.73C77.6036 20.6822 77.5474 20.6441 77.4852 20.618C77.4229 20.592 77.3559 20.5785 77.2882 20.5784C76.9965 20.5575 76.7048 20.5784 76.3879 20.5784V21.5569Z" fill="#878787"/>
<path d="M74.28 19.8218V20.559H72.0633V21.338H74.0467V22.1284H72.073V22.9302H74.2937V23.7852H70.988V19.8218H74.28Z" fill="#878787"/>
<path d="M95.0357 22.9344V23.7875H91.7048V19.8203H95.0104V20.548H92.8209V21.3422H94.7907V22.1326H92.8112V22.9344H95.0357Z" fill="#878787"/>
<path d="M70.1499 21.2015C69.6521 21.1768 69.2107 21.3592 68.851 20.8215C68.5243 20.3275 67.6123 20.5365 67.4354 21.1426C67.3293 21.5795 67.326 22.0342 67.4257 22.4726C67.5015 22.8412 67.8398 23.0426 68.2657 23.0426C68.7752 23.0312 69.0046 22.7272 69.1018 22.2826H70.1519C70.0663 23.3656 69.2924 23.9926 68.1199 23.9318C67.0095 23.8805 66.1754 22.9818 66.1754 21.8171C66.1754 20.6524 67.0193 19.7384 68.1646 19.7023C69.2593 19.6548 70.0741 20.2515 70.1499 21.2015Z" fill="#878787"/>
<path d="M88.7997 19.8184V20.5632H86.8668V21.46H88.5138V22.22H86.8513V23.7742H85.7993V19.8184H88.7997Z" fill="#878787"/>
<path d="M58.6754 23.9547L54.835 25.127L54.7397 25.0358L57.3065 20.9888L58.6754 23.9547Z" fill="#878787"/>
<path d="M79.3494 20.6749V19.8237H82.8786V20.6502H81.6867V23.7909H80.5802V20.6749H79.3494Z" fill="#878787"/>
<path d="M83.6701 23.7818V19.8184H84.6929V23.7818H83.6701Z" fill="#878787"/>
<path d="M89.6105 23.7836V19.8164H90.6333V23.7836H89.6105Z" fill="#878787"/>
<path d="M14.9143 14.8936C15.7602 14.9924 16.5166 15.0171 17.2477 15.1824C18.1986 15.4009 18.6458 16.0108 18.6595 16.8924C18.677 17.9146 18.2822 18.5454 17.2983 18.7924C16.5574 18.9824 15.7719 19.009 14.9299 19.1173V14.8936H14.9143Z" fill="#878787"/>
</g>
<defs>
<clipPath id="clip0_2755_10624">
<rect width="100" height="37.7778" fill="white" transform="translate(0 0.111328)"/>
</clipPath>
</defs>
</svg>
