<svg width="14" height="12" viewBox="0 0 14 12" fill="none" xmlns="http://www.w3.org/2000/svg">
<path d="M4.47133 5.838C4.53332 5.89991 4.58249 5.97344 4.61604 6.05437C4.64959 6.1353 4.66686 6.22206 4.66686 6.30967C4.66686 6.39728 4.64959 6.48403 4.61604 6.56496C4.58249 6.64589 4.53332 6.71942 4.47133 6.78133L3.25333 8H9.66667C9.84348 8 10.013 8.07024 10.1381 8.19526C10.2631 8.32029 10.3333 8.48985 10.3333 8.66667C10.3333 8.84348 10.2631 9.01305 10.1381 9.13807C10.013 9.2631 9.84348 9.33333 9.66667 9.33333H3.25333L4.472 10.552C4.53394 10.6139 4.58308 10.6874 4.61662 10.7683C4.65016 10.8492 4.66744 10.9359 4.66747 11.0234C4.6675 11.111 4.65028 11.1977 4.6168 11.2786C4.58332 11.3595 4.53423 11.4331 4.47233 11.495C4.41044 11.5569 4.33695 11.6061 4.25606 11.6396C4.17517 11.6732 4.08847 11.6904 4.0009 11.6905C3.91334 11.6905 3.82662 11.6733 3.74571 11.6398C3.6648 11.6063 3.59127 11.5572 3.52934 11.4953L1.172 9.138C1.04702 9.01298 0.97681 8.84344 0.97681 8.66667C0.97681 8.48989 1.04702 8.32035 1.172 8.19533L3.52934 5.838C3.65435 5.71302 3.82389 5.64281 4.00067 5.64281C4.17744 5.64281 4.34698 5.71302 4.472 5.838H4.47133ZM9.52867 0.504666C9.64346 0.389882 9.7962 0.320928 9.95821 0.31074C10.1202 0.300553 10.2804 0.349832 10.4087 0.449333L10.4713 0.504666L12.8287 2.862C12.9435 2.97679 13.0124 3.12953 13.0226 3.29155C13.0328 3.45356 12.9835 3.61373 12.884 3.742L12.8287 3.80467L10.4713 6.16133C10.3514 6.2809 10.1904 6.35032 10.0211 6.35548C9.85178 6.36065 9.68686 6.30119 9.55982 6.18917C9.43277 6.07714 9.35313 5.92097 9.33707 5.75235C9.32101 5.58373 9.36973 5.41533 9.47334 5.28133L9.52867 5.21867L10.7467 4H4.33333C4.16341 3.99981 3.99998 3.93475 3.87642 3.8181C3.75286 3.70145 3.67851 3.54203 3.66855 3.3724C3.6586 3.20278 3.71378 3.03575 3.82284 2.90544C3.93191 2.77514 4.0866 2.6914 4.25533 2.67133L4.33333 2.66667H10.7473L9.52867 1.44667C9.40369 1.32165 9.33348 1.15211 9.33348 0.975333C9.33348 0.798557 9.40369 0.629018 9.52867 0.504V0.504666Z" fill="white"/>
</svg>
