<svg width="41" height="40" viewBox="0 0 41 40" fill="none" xmlns="http://www.w3.org/2000/svg">
<g clip-path="url(#clip0_3169_6218)">
<path d="M14.0116 19.595C14.1666 19.7498 14.2895 19.9336 14.3734 20.1359C14.4573 20.3383 14.5005 20.5551 14.5005 20.7742C14.5005 20.9932 14.4573 21.2101 14.3734 21.4124C14.2895 21.6147 14.1666 21.7985 14.0116 21.9533L10.9666 25H27C27.442 25 27.8659 25.1756 28.1785 25.4881C28.4911 25.8007 28.6666 26.2246 28.6666 26.6667C28.6666 27.1087 28.4911 27.5326 28.1785 27.8452C27.8659 28.1577 27.442 28.3333 27 28.3333H10.9666L14.0133 31.38C14.1682 31.5347 14.291 31.7185 14.3749 31.9207C14.4587 32.1229 14.5019 32.3397 14.502 32.5586C14.5021 32.7775 14.459 32.9943 14.3753 33.1966C14.2916 33.3988 14.1689 33.5826 14.0141 33.7375C13.8594 33.8923 13.6757 34.0152 13.4735 34.099C13.2712 34.1829 13.0545 34.2261 12.8356 34.2262C12.6167 34.2262 12.3999 34.1832 12.1976 34.0995C11.9953 34.0158 11.8115 33.8931 11.6566 33.7383L5.76331 27.845C5.45086 27.5324 5.27534 27.1086 5.27534 26.6667C5.27534 26.2247 5.45086 25.8009 5.76331 25.4883L11.6566 19.595C11.9692 19.2825 12.393 19.107 12.835 19.107C13.2769 19.107 13.7008 19.2825 14.0133 19.595H14.0116ZM26.655 6.26166C26.942 5.9747 27.3238 5.80232 27.7288 5.77685C28.1339 5.75138 28.5343 5.87458 28.855 6.12333L29.0116 6.26166L34.905 12.155C35.1919 12.442 35.3643 12.8238 35.3898 13.2289C35.4153 13.6339 35.2921 14.0343 35.0433 14.355L34.905 14.5117L29.0116 20.4033C28.7117 20.7022 28.3093 20.8758 27.886 20.8887C27.4628 20.9016 27.0505 20.753 26.7328 20.4729C26.4152 20.1929 26.2161 19.8024 26.176 19.3809C26.1358 18.9593 26.2576 18.5383 26.5166 18.2033L26.655 18.0467L29.7 15H13.6666C13.2418 14.9995 12.8333 14.8369 12.5244 14.5452C12.2155 14.2536 12.0296 13.8551 12.0047 13.431C11.9798 13.0069 12.1178 12.5894 12.3904 12.2636C12.6631 11.9379 13.0498 11.7285 13.4716 11.6783L13.6666 11.6667H29.7016L26.655 8.61666C26.3425 8.30412 26.167 7.88027 26.167 7.43833C26.167 6.99639 26.3425 6.57254 26.655 6.26V6.26166Z" fill="url(#paint0_linear_3169_6218)"/>
</g>
<defs>
<linearGradient id="paint0_linear_3169_6218" x1="7.00761" y1="9.90511" x2="35.825" y2="14.848" gradientUnits="userSpaceOnUse">
<stop stop-color="#f92d2d"/>
<stop offset="1" stop-color="#FD8B64"/>
</linearGradient>
<clipPath id="clip0_3169_6218">
<rect width="40" height="40" fill="white" transform="translate(0.333313)"/>
</clipPath>
</defs>
</svg>
