<svg width="41" height="40" viewBox="0 0 41 40" fill="none" xmlns="http://www.w3.org/2000/svg">
<path d="M26.5 22.9167C26.5 22.5851 26.6317 22.2672 26.8661 22.0328C27.1005 21.7984 27.4184 21.6667 27.75 21.6667H31.0833C31.4148 21.6667 31.7328 21.7984 31.9672 22.0328C32.2016 22.2672 32.3333 22.5851 32.3333 22.9167C32.3333 23.2482 32.2016 23.5661 31.9672 23.8005C31.7328 24.035 31.4148 24.1667 31.0833 24.1667H27.75C27.4184 24.1667 27.1005 24.035 26.8661 23.8005C26.6317 23.5661 26.5 23.2482 26.5 22.9167ZM5.66663 8.33333H5.68996C5.79245 7.41665 6.22919 6.56989 6.9167 5.95495C7.6042 5.34001 8.49423 5.00003 9.41663 5H28.5833C29.0758 5 29.5634 5.097 30.0184 5.28545C30.4733 5.47391 30.8867 5.75013 31.2349 6.09835C31.5832 6.44657 31.8594 6.85997 32.0478 7.31494C32.2363 7.76991 32.3333 8.25754 32.3333 8.75V10.145C33.5197 10.4267 34.5764 11.1003 35.3325 12.0569C36.0886 13.0136 36.4999 14.1973 36.5 15.4167V29.5833C36.5 31.0199 35.9293 32.3977 34.9135 33.4135C33.8976 34.4293 32.5199 35 31.0833 35H11.0833C9.6467 35 8.26895 34.4293 7.25313 33.4135C6.23731 32.3977 5.66663 31.0199 5.66663 29.5833V8.33333ZM31.0833 12.5H8.16663V29.5833C8.16663 31.1933 9.47329 32.5 11.0833 32.5H31.0833C31.8568 32.5 32.5987 32.1927 33.1457 31.6457C33.6927 31.0987 34 30.3569 34 29.5833V15.4167C34 14.6431 33.6927 13.9013 33.1457 13.3543C32.5987 12.8073 31.8568 12.5 31.0833 12.5V12.5ZM29.8333 10V8.75C29.8333 8.41848 29.7016 8.10054 29.4672 7.86612C29.2328 7.6317 28.9148 7.5 28.5833 7.5H9.41663C9.08511 7.5 8.76716 7.6317 8.53274 7.86612C8.29832 8.10054 8.16663 8.41848 8.16663 8.75C8.16663 9.08152 8.29832 9.39946 8.53274 9.63388C8.76716 9.8683 9.08511 10 9.41663 10H29.8333Z" fill="url(#paint0_linear_3169_6211)"/>
<defs>
<linearGradient id="paint0_linear_3169_6211" x1="7.44006" y1="9.35625" x2="36.9905" y2="14.2776" gradientUnits="userSpaceOnUse">
<stop stop-color="#F7435C"/>
<stop offset="1" stop-color="#FD8B64"/>
</linearGradient>
</defs>
</svg>
