<svg width="16" height="16" viewBox="0 0 16 16" fill="none" xmlns="http://www.w3.org/2000/svg">
<path d="M14.7658 6.4375H10.7658C10.6971 6.4375 10.6408 6.49375 10.6408 6.5625V7.3125C10.6408 7.38125 10.6971 7.4375 10.7658 7.4375H14.7658C14.8346 7.4375 14.8908 7.38125 14.8908 7.3125V6.5625C14.8908 6.49375 14.8346 6.4375 14.7658 6.4375ZM12.6721 8.5625H10.7658C10.6971 8.5625 10.6408 8.61875 10.6408 8.6875V9.4375C10.6408 9.50625 10.6971 9.5625 10.7658 9.5625H12.6721C12.7408 9.5625 12.7971 9.50625 12.7971 9.4375V8.6875C12.7971 8.61875 12.7408 8.5625 12.6721 8.5625ZM7.45801 5.03906H6.78145C6.68457 5.03906 6.60645 5.11719 6.60645 5.21406V9.08906C6.60645 9.14531 6.63301 9.19688 6.67832 9.22969L9.00488 10.9266C9.08301 10.9828 9.19238 10.9672 9.24863 10.8891L9.6502 10.3406V10.3391C9.70645 10.2609 9.68926 10.1516 9.61113 10.0953L7.63145 8.66406V5.21406C7.63301 5.11719 7.55332 5.03906 7.45801 5.03906Z" fill="white"/>
<path d="M12.575 10.5297H11.6719C11.5844 10.5297 11.5016 10.575 11.4547 10.65C11.2563 10.9641 11.025 11.2547 10.7594 11.5203C10.3016 11.9781 9.76876 12.3375 9.17657 12.5875C8.56251 12.8469 7.91095 12.9781 7.23907 12.9781C6.56564 12.9781 5.91407 12.8469 5.30157 12.5875C4.70939 12.3375 4.17657 11.9781 3.71876 11.5203C3.26095 11.0625 2.90157 10.5297 2.65157 9.9375C2.3922 9.325 2.26095 8.67344 2.26095 8C2.26095 7.32656 2.3922 6.67656 2.65157 6.0625C2.90157 5.47031 3.26095 4.9375 3.71876 4.47969C4.17657 4.02188 4.70939 3.6625 5.30157 3.4125C5.91407 3.15313 6.5672 3.02188 7.23907 3.02188C7.91251 3.02188 8.56407 3.15313 9.17657 3.4125C9.76876 3.6625 10.3016 4.02188 10.7594 4.47969C11.025 4.74531 11.2563 5.03594 11.4547 5.35C11.5016 5.425 11.5844 5.47031 11.6719 5.47031H12.575C12.6828 5.47031 12.7516 5.35781 12.7031 5.2625C11.6844 3.23594 9.61876 1.91875 7.31251 1.89219C3.93595 1.85 1.13126 4.61406 1.12501 7.9875C1.11876 11.3672 3.85782 14.1094 7.23751 14.1094C9.57345 14.1094 11.6734 12.7875 12.7031 10.7375C12.7516 10.6422 12.6813 10.5297 12.575 10.5297Z" fill="white"/>
</svg>
