<svg width="578" height="115" viewBox="0 0 578 115" fill="none" xmlns="http://www.w3.org/2000/svg">
<g clip-path="url(#clip0_6357_32448)">
<path d="M152.087 5.0686V35.2547C147.349 30.2988 140.692 27.5955 133.02 27.5955C115.419 27.5955 101.655 41.7875 101.655 59.9217C101.655 78.0559 115.419 92.2478 133.02 92.2478C141.031 92.2478 148.026 89.3193 152.764 84.1381V91.0089H167.093V5.0686H152.087ZM134.487 77.9432C124.107 77.9432 116.66 70.3967 116.66 59.9217C116.66 49.334 124.22 41.7875 134.487 41.7875C144.754 41.7875 152.2 49.4467 152.2 59.9217C152.313 70.3967 144.754 77.9432 134.487 77.9432Z" fill="white"/>
<path d="M205.115 72.8746L188.191 28.8345H171.944L196.879 90.4456L186.95 115H202.745L237.721 28.8345H221.813L205.115 72.8746Z" fill="white"/>
<path d="M274.164 27.5955C267.168 27.5955 261.076 29.8482 256.901 34.0156V28.8344H242.573V91.0088H257.578V56.9931C257.578 47.7571 263.22 41.9001 272.02 41.9001C280.482 41.9001 285.559 47.5318 285.559 56.9931V91.0088H300.565V55.7541C300.565 38.9716 289.959 27.5955 274.164 27.5955Z" fill="white"/>
<path d="M339.15 27.5955C321.437 27.5955 307.56 41.7874 307.56 59.9216C307.56 61.6111 307.672 63.188 307.898 64.7649H369.952L370.064 64.2017C370.29 62.6248 370.29 61.048 370.29 59.5837C370.177 41.1116 357.09 27.5955 339.15 27.5955ZM322.904 53.5014C325.047 45.617 331.027 40.7737 338.925 40.7737C347.274 40.7737 353.479 45.7296 354.833 53.5014H322.904ZM355.397 69.3829L355.171 69.8335C352.464 75.5778 346.71 78.9569 339.715 78.9569C332.268 78.9569 326.627 75.4652 323.919 69.2703H308.801C312.75 82.6738 324.935 92.1351 339.715 92.1351C353.705 92.1351 365.777 83.5749 370.403 70.284L370.741 69.3829H355.397Z" fill="white"/>
<path d="M64.987 83.237L22.2266 100.921V72.3114L46.7095 62.1743L64.8742 69.7208C71.0796 72.1988 71.0796 80.759 64.987 83.237Z" fill="white"/>
<path d="M83.0388 57.3311C83.1517 62.287 81.7978 67.1303 79.3156 71.4104L79.2028 70.6219C78.5259 64.5397 74.6898 59.3585 68.9358 56.9931L22.2264 37.7326L0 28.4966V0L22.2264 9.12341L72.8846 29.9608C78.8643 32.4388 82.8132 38.1832 82.8132 44.6033L83.0388 57.3311Z" fill="white"/>
<path d="M72.9976 30.0733L22.2266 9.12329L72.9976 30.0733Z" fill="white"/>
<path d="M369.952 91.6846L391.05 60.1469L371.418 28.8345H387.665L401.543 51.2488L415.42 28.8345H431.441L411.81 60.1469L432.795 91.6846H416.21L401.204 68.7071L386.311 91.7973H369.952V91.6846Z" fill="white"/>
<path d="M448.252 91.2342V81.0971L474.427 56.9932C484.243 48.0951 491.463 41.337 491.463 32.3263C491.463 24.6671 486.161 18.6975 477.36 18.6975C468.56 18.6975 462.58 24.8924 461.903 34.5789H447.913C449.38 16.2195 461.791 5.63184 477.812 5.63184C494.622 5.63184 505.679 17.1206 505.679 31.6504C505.679 44.2655 497.33 53.7268 485.484 64.4271L470.704 78.0559H507.146V91.2342H448.252Z" fill="white"/>
<path d="M552.389 91.2343V70.1716H512.11V59.0208L550.245 6.7583H565.815V57.2186H578V70.1716H565.815V91.2343H552.389ZM528.131 57.2186H552.389V24.3293L528.131 57.2186Z" fill="white"/>
</g>
<defs>
<clipPath id="clip0_6357_32448">
<rect width="578" height="115" fill="white"/>
</clipPath>
</defs>
</svg>
