<svg width="45" height="45" viewBox="0 0 45 45" fill="none" xmlns="http://www.w3.org/2000/svg">
<circle cx="22.5" cy="22.5" r="22.5" fill="url(#paint0_linear_2574_5731)"/>
<path d="M28.5628 7.5H16.4372C11.5092 7.5 7.5 11.5092 7.5 16.4372V28.5628C7.5 33.4908 11.5092 37.5 16.4372 37.5H28.5628C33.4908 37.5 37.5 33.4908 37.5 28.5628V16.4372C37.4999 11.5092 33.4908 7.5 28.5628 7.5ZM34.482 28.5628C34.482 31.8319 31.8319 34.482 28.5628 34.482H16.4372C13.1681 34.482 10.518 31.8319 10.518 28.5628V16.4372C10.518 13.1681 13.1681 10.518 16.4372 10.518H28.5628C31.8319 10.518 34.482 13.1681 34.482 16.4372V28.5628Z" fill="white"/>
<path d="M22.5 14.741C18.2216 14.741 14.7409 18.2217 14.7409 22.5C14.7409 26.7783 18.2216 30.259 22.5 30.259C26.7783 30.259 30.259 26.7783 30.259 22.5C30.259 18.2216 26.7783 14.741 22.5 14.741ZM22.5 27.2411C19.8815 27.2411 17.7589 25.1185 17.7589 22.5C17.7589 19.8816 19.8816 17.759 22.5 17.759C25.1184 17.759 27.241 19.8816 27.241 22.5C27.241 25.1184 25.1184 27.2411 22.5 27.2411Z" fill="white"/>
<path d="M30.2741 16.6584C31.3009 16.6584 32.1333 15.826 32.1333 14.7992C32.1333 13.7723 31.3009 12.9399 30.2741 12.9399C29.2473 12.9399 28.4149 13.7723 28.4149 14.7992C28.4149 15.826 29.2473 16.6584 30.2741 16.6584Z" fill="white"/>
<defs>
<linearGradient id="paint0_linear_2574_5731" x1="22.5" y1="296.163" x2="22.5" y2="-63.0132" gradientUnits="userSpaceOnUse">
<stop stop-color="#E09B3D"/>
<stop offset="0.3" stop-color="#C74C4D"/>
<stop offset="0.6" stop-color="#C21975"/>
<stop offset="1" stop-color="#7024C4"/>
</linearGradient>
</defs>
</svg>
