<svg width="45" height="45" viewBox="0 0 45 45" fill="none" xmlns="http://www.w3.org/2000/svg">
<path d="M22.498 0C9.826 0 0 9.28605 0 21.8231C0 28.3812 2.68851 34.0507 7.06437 37.9654C7.42997 38.2916 7.65495 38.7528 7.6662 39.2478L7.78993 43.2524C7.82931 44.5292 9.14544 45.3616 10.3153 44.8442L14.7812 42.8756C15.158 42.7068 15.5855 42.6787 15.9848 42.7856C18.0378 43.348 20.2201 43.6518 22.498 43.6518C35.17 43.6518 44.996 34.3657 44.996 21.8287C44.996 9.29168 35.17 0 22.498 0Z" fill="url(#paint0_radial_2574_5738)"/>
<path d="M8.98795 28.2069L15.5967 17.7229C16.6485 16.0524 18.8983 15.6418 20.4788 16.8229L25.7377 20.7657C26.2214 21.1257 26.8851 21.1257 27.3632 20.7601L34.4613 15.3718C35.4062 14.6519 36.6436 15.788 36.0137 16.7948L29.3993 27.2733C28.3475 28.9437 26.0977 29.3543 24.5172 28.1732L19.2583 24.2304C18.7746 23.8704 18.1109 23.8704 17.6328 24.236L10.5347 29.6243C9.58977 30.3442 8.35238 29.2137 8.98795 28.2069Z" fill="white"/>
<defs>
<radialGradient id="paint0_radial_2574_5738" cx="0" cy="0" r="1" gradientUnits="userSpaceOnUse" gradientTransform="translate(8.66173 44.751) scale(49.0277 49.0276)">
<stop stop-color="#0099FF"/>
<stop offset="0.6098" stop-color="#A033FF"/>
<stop offset="0.9348" stop-color="#FF5280"/>
<stop offset="1" stop-color="#FF7061"/>
</radialGradient>
</defs>
</svg>
