<svg width="240" height="240" viewBox="0 0 240 240" fill="none" xmlns="http://www.w3.org/2000/svg">
<path d="M43.8096 129.523H100.952C103.478 129.523 105.901 128.52 107.687 126.734C109.473 124.948 110.476 122.525 110.476 119.999V43.809C110.476 41.2831 109.473 38.8607 107.687 37.0746C105.901 35.2886 103.478 34.2852 100.952 34.2852H43.8096C41.2837 34.2852 38.8613 35.2886 37.0752 37.0746C35.2892 38.8607 34.2858 41.2831 34.2858 43.809V119.999C34.2858 122.525 35.2892 124.948 37.0752 126.734C38.8613 128.52 41.2837 129.523 43.8096 129.523ZM34.2858 196.19C34.2858 198.716 35.2892 201.138 37.0752 202.924C38.8613 204.71 41.2837 205.714 43.8096 205.714H100.952C103.478 205.714 105.901 204.71 107.687 202.924C109.473 201.138 110.476 198.716 110.476 196.19V158.095C110.476 155.569 109.473 153.146 107.687 151.36C105.901 149.574 103.478 148.571 100.952 148.571H43.8096C41.2837 148.571 38.8613 149.574 37.0752 151.36C35.2892 153.146 34.2858 155.569 34.2858 158.095V196.19ZM129.524 196.19C129.524 198.716 130.527 201.138 132.313 202.924C134.099 204.71 136.522 205.714 139.048 205.714H196.191C198.716 205.714 201.139 204.71 202.925 202.924C204.711 201.138 205.714 198.716 205.714 196.19V129.523C205.714 126.997 204.711 124.575 202.925 122.789C201.139 121.003 198.716 119.999 196.191 119.999H139.048C136.522 119.999 134.099 121.003 132.313 122.789C130.527 124.575 129.524 126.997 129.524 129.523V196.19ZM139.048 100.952H196.191C198.716 100.952 201.139 99.9484 202.925 98.1624C204.711 96.3763 205.714 93.9539 205.714 91.428V43.809C205.714 41.2831 204.711 38.8607 202.925 37.0746C201.139 35.2886 198.716 34.2852 196.191 34.2852H139.048C136.522 34.2852 134.099 35.2886 132.313 37.0746C130.527 38.8607 129.524 41.2831 129.524 43.809V91.428C129.524 93.9539 130.527 96.3763 132.313 98.1624C134.099 99.9484 136.522 100.952 139.048 100.952Z" fill="white"/>
</svg>
