<svg width="240" height="240" viewBox="0 0 240 240" fill="none" xmlns="http://www.w3.org/2000/svg">
<path d="M77.2306 210.795C77.2258 217.455 82.6238 222.857 89.2842 222.857H131.908V185.893L77.2483 185.893L77.2306 210.795Z" fill="white"/>
<path d="M143.962 222.856H149.989C156.646 222.856 162.042 217.46 162.042 210.802V185.893H143.962V222.856Z" fill="white"/>
<path d="M89.4967 47.2773H149.765V95.4916H89.4967V47.2773Z" fill="white"/>
<path d="M168.944 17.1426H70.3578C63.7018 17.1426 58.3059 22.5374 58.3042 29.1933L58.2858 101.518L62.2847 173.839H176.98L180.998 101.518V29.1961C180.998 22.539 175.601 17.1426 168.944 17.1426ZM101.55 155.759H89.4969V143.705H101.55V155.759ZM101.55 131.652H89.4969V119.598H101.55V131.652ZM125.658 155.759H113.604V143.705H125.658V155.759ZM125.658 131.652H113.604V119.598H125.658V131.652ZM149.765 155.759H137.711V143.705H149.765V155.759ZM149.765 131.652H137.711V119.598H149.765V131.652ZM161.818 107.544H77.4433V35.2229H161.818V107.544Z" fill="white"/>
</svg>
