<svg width="240" height="240" viewBox="0 0 240 240" fill="none" xmlns="http://www.w3.org/2000/svg">
<path d="M30.8572 34.7676V62.8926C30.8572 64.3844 31.4498 65.8152 32.5047 66.8701C33.5596 67.9249 34.9903 68.5176 36.4822 68.5176H47.7322V29.1426H36.4822C34.9903 29.1426 33.5596 29.7352 32.5047 30.7901C31.4498 31.845 30.8572 33.2757 30.8572 34.7676Z" fill="white"/>
<path d="M205.232 29.1426H193.982V68.5176H205.232C206.724 68.5176 208.155 67.9249 209.21 66.8701C210.265 65.8152 210.857 64.3844 210.857 62.8926V34.7676C210.857 33.2757 210.265 31.845 209.21 30.7901C208.155 29.7352 206.724 29.1426 205.232 29.1426Z" fill="white"/>
<path d="M133.755 182.666L126.482 189.939V147.268C126.482 145.776 125.89 144.345 124.835 143.29C123.78 142.235 122.349 141.643 120.857 141.643C119.365 141.643 117.935 142.235 116.88 143.29C115.825 144.345 115.232 145.776 115.232 147.268V189.939L107.959 182.666C106.898 181.641 105.477 181.074 104.002 181.087C102.528 181.1 101.117 181.691 100.074 182.734C99.0309 183.777 98.4393 185.188 98.4265 186.663C98.4137 188.138 98.9806 189.559 100.005 190.619L116.88 207.494C117.403 208.018 118.024 208.434 118.707 208.717C119.39 209.001 120.123 209.147 120.863 209.147C121.603 209.147 122.335 209.001 123.019 208.717C123.702 208.434 124.323 208.018 124.845 207.494L141.72 190.619C142.745 189.559 143.312 188.138 143.299 186.663C143.286 185.188 142.695 183.777 141.652 182.734C140.609 181.691 139.198 181.1 137.723 181.087C136.248 181.074 134.827 181.641 133.767 182.666H133.755Z" fill="white"/>
<path d="M120.857 46.0176C122.811 46.0284 124.733 45.5265 126.431 44.5622C128.13 43.5978 129.546 42.2047 130.538 40.522C131.525 38.7956 132.063 36.8487 132.101 34.8603C132.14 32.8719 131.677 30.9057 130.757 29.1426L111.03 29.1426C110.143 30.8506 109.677 32.746 109.671 34.6707C109.665 36.5954 110.12 38.4936 110.997 40.207C111.97 41.9692 113.398 43.4379 115.133 44.4599C116.867 45.482 118.844 46.0199 120.857 46.0176Z" fill="white"/>
<path d="M103.273 107.893H138.441C139.454 104.004 141.487 100.457 144.329 97.6159C147.17 94.7752 150.719 92.744 154.607 91.732V29.1426H142.66C143.401 32.0185 143.565 35.0127 143.143 37.9524C142.721 40.8921 141.721 43.7192 140.202 46.2707C138.2 49.617 135.367 52.3884 131.977 54.3154C128.587 56.2424 124.756 57.2594 120.857 57.2676C117.422 57.2763 114.031 56.4956 110.945 54.9856C107.859 53.4756 105.162 51.2768 103.061 48.5588C100.96 45.8409 99.5116 42.6766 98.8277 39.31C98.1438 35.9435 98.2426 32.4648 99.1166 29.1426H87.1072V91.732C90.9958 92.744 94.5441 94.7752 97.3859 97.6159C100.228 100.457 102.26 104.004 103.273 107.893ZM120.857 68.5176C121.97 68.5176 123.057 68.8475 123.982 69.4656C124.907 70.0836 125.628 70.9622 126.054 71.99C126.48 73.0178 126.591 74.1488 126.374 75.24C126.157 76.3311 125.621 77.3334 124.835 78.1201C124.048 78.9067 123.046 79.4425 121.955 79.6595C120.863 79.8765 119.732 79.7651 118.705 79.3394C117.677 78.9137 116.798 78.1927 116.18 77.2677C115.562 76.3426 115.232 75.2551 115.232 74.1426C115.232 72.6507 115.825 71.22 116.88 70.1651C117.935 69.1102 119.365 68.5176 120.857 68.5176Z" fill="white"/>
<path d="M165.857 96.6426C165.857 98.1344 165.264 99.5652 164.21 100.62C163.155 101.675 161.724 102.268 160.232 102.268C157.248 102.268 154.387 103.453 152.277 105.563C150.167 107.672 148.982 110.534 148.982 113.518C148.982 115.009 148.389 116.44 147.335 117.495C146.28 118.55 144.849 119.143 143.357 119.143H98.3571C96.8652 119.143 95.4345 118.55 94.3796 117.495C93.3247 116.44 92.7321 115.009 92.7321 113.518C92.7321 110.534 91.5468 107.672 89.437 105.563C87.3272 103.453 84.4657 102.268 81.4821 102.268C79.9902 102.268 78.5595 101.675 77.5046 100.62C76.4497 99.5652 75.8571 98.1344 75.8571 96.6426V29.1426H58.9821V130.393C58.9821 131.884 59.5747 133.315 60.6296 134.37C61.6845 135.425 63.1152 136.018 64.6071 136.018H177.107C178.599 136.018 180.03 135.425 181.085 134.37C182.139 133.315 182.732 131.884 182.732 130.393V29.1426H165.857V96.6426Z" fill="white"/>
</svg>
