<svg width="240" height="240" viewBox="0 0 240 240" fill="none" xmlns="http://www.w3.org/2000/svg">
<path d="M177.108 40.5817C177.108 37.5479 175.922 34.6383 173.813 32.493C171.703 30.3478 168.841 29.1426 165.858 29.1426H75.8571C72.8734 29.1426 70.0119 30.3478 67.9021 32.493C65.7923 34.6383 64.6071 37.5479 64.6071 40.5817V52.0208H177.108V40.5817Z" fill="white"/>
<path d="M64.6071 200.73C64.6071 203.764 65.7923 206.674 67.9021 208.819C70.0119 210.964 72.8734 212.169 75.8571 212.169H165.858C168.841 212.169 171.703 210.964 173.813 208.819C175.922 206.674 177.108 203.764 177.108 200.73V189.291H64.6071V200.73Z" fill="white"/>
<path d="M209.21 70.854L192.335 53.6953L184.38 61.7835L191.653 69.1785H177.108V80.6176H191.653L184.38 88.0127L192.335 96.1008L209.21 78.9422C210.265 77.8696 210.857 76.4149 210.857 74.8981C210.857 73.3813 210.265 71.9266 209.21 70.854Z" fill="white"/>
<path d="M50.0616 160.692L57.334 153.297L49.3795 145.209L32.5045 162.368C31.4497 163.44 30.8572 164.895 30.8572 166.412C30.8572 167.929 31.4497 169.383 32.5045 170.456L49.3795 187.614L57.334 179.526L50.0616 172.131H64.6068V160.692H50.0616Z" fill="white"/>
<path d="M148.982 69.1794H177.108V57.7402H64.6071V160.692H92.7322V172.131H64.6071V183.571H177.108V80.6185H148.982V69.1794ZM115.232 114.936H126.482C130.958 114.936 135.25 116.744 138.415 119.961C141.58 123.179 143.357 127.544 143.357 132.094C143.357 136.645 141.58 141.01 138.415 144.228C135.25 147.445 130.958 149.253 126.482 149.253V154.973H115.232V149.253C110.758 149.248 106.469 147.439 103.305 144.222C100.142 141.005 98.3623 136.644 98.3572 132.094H109.607C109.609 133.611 110.202 135.065 111.257 136.137C112.311 137.209 113.741 137.812 115.232 137.814H126.482C127.974 137.814 129.405 137.211 130.46 136.139C131.515 135.066 132.107 133.611 132.107 132.094C132.107 130.578 131.515 129.123 130.46 128.05C129.405 126.978 127.974 126.375 126.482 126.375H115.232C110.757 126.375 106.465 124.567 103.3 121.349C100.135 118.131 98.3572 113.767 98.3572 109.216C98.3572 104.665 100.135 100.301 103.3 97.0832C106.465 93.8654 110.757 92.0576 115.232 92.0576V86.338H126.482V92.0576C130.956 92.0628 135.246 93.8722 138.409 97.089C141.573 100.306 143.352 104.667 143.357 109.216H132.107C132.106 107.7 131.512 106.246 130.458 105.174C129.403 104.102 127.974 103.498 126.482 103.497H115.232C113.74 103.497 112.31 104.099 111.255 105.172C110.2 106.245 109.607 107.699 109.607 109.216C109.607 110.733 110.2 112.188 111.255 113.261C112.31 114.333 113.74 114.936 115.232 114.936Z" fill="white"/>
</svg>
