<svg width="240" height="240" viewBox="0 0 240 240" fill="none" xmlns="http://www.w3.org/2000/svg">
<path d="M120.857 29.1426C71.1582 29.1426 30.8572 69.4436 30.8572 119.143C30.8572 168.842 71.1582 209.143 120.857 209.143C170.556 209.143 210.857 168.842 210.857 119.143C210.857 69.4436 170.556 29.1426 120.857 29.1426ZM128.682 113.136C143.783 113.136 156.005 125.376 156.005 140.458C156.005 155.54 143.783 167.799 128.682 167.799H125.348V173.143C125.348 176.458 122.657 179.149 119.341 179.149C116.026 179.149 113.335 176.458 113.335 173.143V167.799H110C94.8993 167.799 82.6782 155.559 82.6782 140.477C82.6782 137.162 85.3688 134.471 88.6845 134.471C92.0003 134.471 94.6909 137.162 94.6909 140.477C94.6909 148.947 101.55 155.806 110.019 155.806H113.354V125.149H110.019C94.9182 125.149 82.6972 112.909 82.6972 97.8078C82.6972 82.7257 94.9372 70.4857 110.019 70.4857H113.354V65.1426C113.354 61.8268 116.045 59.1363 119.36 59.1363C122.676 59.1363 125.367 61.8268 125.367 65.1426V70.4857H128.701C143.802 70.4857 156.023 82.7257 156.023 97.8078C156.023 101.124 153.333 103.814 150.017 103.814C146.701 103.814 144.011 101.124 144.011 97.8078C144.011 89.3384 137.152 82.4794 128.682 82.4794H125.348V113.136H128.682Z" fill="white"/>
<path d="M125.367 155.805H128.701C137.171 155.805 144.03 148.946 144.03 140.477C144.03 132.007 137.171 125.148 128.701 125.148H125.367V155.805Z" fill="white"/>
<path d="M94.6909 97.8089C94.6909 106.278 101.55 113.137 110.019 113.137H113.354V82.4805H110.019C101.569 82.4805 94.6909 89.3394 94.6909 97.8089Z" fill="white"/>
</svg>
