<svg width="240" height="240" viewBox="0 0 240 240" fill="none" xmlns="http://www.w3.org/2000/svg">
<path d="M120.857 29.1426C71.2372 29.1426 30.8572 69.5226 30.8572 119.143C30.8572 168.763 71.2372 209.143 120.857 209.143C170.477 209.143 210.857 168.763 210.857 119.143C210.857 69.5226 170.477 29.1426 120.857 29.1426ZM120.857 167.143C106.817 167.143 93.8572 161.023 84.8572 150.763V161.143H72.8572V131.143H102.857V143.143H94.0972C100.817 150.643 110.477 155.143 120.857 155.143C140.717 155.143 156.857 139.003 156.857 119.143H168.857C168.857 145.603 147.317 167.143 120.857 167.143ZM168.857 107.143H138.857V95.1426H147.677C140.957 87.6426 131.177 83.1426 120.857 83.1426C100.997 83.1426 84.8572 99.2826 84.8572 119.143H72.8572C72.8572 92.6826 94.3972 71.1426 120.857 71.1426C134.777 71.1426 147.857 77.2626 156.857 87.4626V77.1426H168.857V107.143Z" fill="white"/>
</svg>
