<svg width="109" height="39" viewBox="0 0 109 39" fill="none" xmlns="http://www.w3.org/2000/svg">
<g clip-path="url(#clip0_2924_10247)">
<path fill-rule="evenodd" clip-rule="evenodd" d="M102.877 15.2286C102.877 14.0679 103.805 13.0929 104.918 13.0929C106.078 13.0929 106.959 14.0679 106.959 15.2286C106.959 16.3893 106.078 17.3643 104.918 17.3643C103.805 17.4107 102.877 16.4357 102.877 15.2286ZM104.918 16.9C105.8 16.9 106.449 16.1571 106.449 15.275C106.449 14.3929 105.753 13.65 104.918 13.65C104.037 13.65 103.388 14.3929 103.388 15.275C103.388 16.1571 104.083 16.9 104.918 16.9ZM104.64 16.2036H104.223V14.3H105.011C105.15 14.3 105.336 14.3 105.475 14.3929C105.614 14.4857 105.707 14.6714 105.707 14.8571C105.707 15.0893 105.568 15.275 105.382 15.3214L105.707 16.1571H105.243L104.965 15.4143H104.64V16.2036ZM104.64 15.1357H104.872C104.965 15.1357 105.057 15.1357 105.104 15.0893C105.15 15.0429 105.197 14.95 105.197 14.8571C105.197 14.8107 105.15 14.7179 105.104 14.6714C105.057 14.625 104.918 14.625 104.872 14.625H104.64C104.686 14.6714 104.64 15.1357 104.64 15.1357ZM73.7026 0.974994L73.146 4.64285C71.94 3.99285 71.0587 3.76071 70.0847 3.76071C67.5336 3.76071 65.7711 6.36071 65.7711 10.0286C65.7711 12.5821 66.977 14.1143 68.9715 14.1143C69.8064 14.1143 70.7341 13.8357 71.8936 13.2321L71.2907 17.0857C70.0383 17.4571 69.2034 17.5964 68.2758 17.5964C64.6115 17.5964 62.2924 14.8107 62.2924 10.3536C62.2924 4.36428 65.4464 0.139282 69.9919 0.139282C70.5949 0.139282 71.1051 0.185708 71.5226 0.324994L72.9604 0.696424C73.2851 0.835709 73.3779 0.835709 73.7026 0.974994ZM62.3387 3.48214C62.246 3.43571 62.1068 3.43571 62.0141 3.43571C60.9009 3.43571 60.2515 4.03928 59.1847 5.66428L59.5094 3.57499H56.4017L54.3145 17.225H57.7468C58.9992 8.86785 59.2775 7.42857 60.9472 7.42857H61.1792C61.5038 5.80357 61.8749 4.59642 62.4779 3.48214H62.3387ZM41.9302 17.0393C41.0026 17.3643 40.2604 17.5036 39.4719 17.5036C37.7558 17.5036 36.7817 16.4357 36.7817 14.4857C36.7817 14.1143 36.8281 13.6964 36.8745 13.2321L37.1064 11.8857L37.2456 10.8179L38.7298 1.48571H42.1158L41.6983 3.48214H43.4609L42.9507 6.77857H41.2809L40.3532 12.5821C40.3068 12.8143 40.3068 13 40.3068 13.1393C40.3068 13.8357 40.6779 14.1607 41.4664 14.1607C41.8838 14.1607 42.1621 14.1143 42.3941 14.0214L41.9302 17.0393ZM28.4328 7.89285C28.4328 9.61071 29.2213 10.8179 31.0302 11.7C32.3753 12.3964 32.6536 12.5821 32.6536 13.2321C32.6536 14.0679 32.0507 14.4857 30.7055 14.4857C29.6851 14.4857 28.7575 14.3464 27.6443 13.9286L27.1804 17.0857L27.3196 17.1321L27.9226 17.2714C28.1545 17.3179 28.4328 17.3643 28.8038 17.4107C29.5924 17.4571 30.2417 17.55 30.7055 17.55C34.277 17.55 35.9468 16.1107 35.9468 13C35.9468 11.1429 35.2511 10.0286 33.5349 9.19285C32.097 8.49642 31.9579 8.35714 31.9579 7.70714C31.9579 6.96428 32.5145 6.59285 33.6277 6.59285C34.3234 6.59285 35.2047 6.68571 36.086 6.82499L36.5962 3.66785C35.6221 3.48214 34.6017 3.38928 33.5813 3.38928C29.7315 3.29643 28.4328 5.33928 28.4328 7.89285ZM100.929 17.225H97.6826L97.8217 15.8786C96.8941 16.9464 95.92 17.4107 94.6677 17.4107C92.163 17.4107 90.5396 15.1357 90.5396 11.7464C90.5396 7.19642 93.0907 3.34285 96.1056 3.34285C97.4507 3.34285 98.4247 3.94642 99.3987 5.19999L100.141 0.417853H103.527L100.929 17.225ZM95.8736 14.0214C97.497 14.0214 98.6102 12.1179 98.6102 9.425C98.6102 7.70714 97.9609 6.73214 96.8013 6.73214C95.2707 6.73214 94.1575 8.63571 94.1575 11.3286C94.1111 13.0929 94.7141 14.0214 95.8736 14.0214ZM52.7375 16.9464C51.5779 17.3179 50.4183 17.5036 49.2124 17.5036C45.409 17.5036 43.4145 15.4143 43.4145 11.375C43.4145 6.68571 45.9655 3.24999 49.3979 3.24999C52.2273 3.24999 53.9898 5.19999 53.9898 8.21785C53.9898 9.19285 53.8507 10.2143 53.5724 11.6071H46.7541C46.7077 11.8393 46.7077 11.9321 46.7077 12.025C46.7077 13.65 47.7281 14.4393 49.7226 14.4393C50.9285 14.4393 52.0417 14.1607 53.2941 13.5571C53.2477 13.5571 52.7375 16.9464 52.7375 16.9464ZM50.8358 8.775C50.8821 8.49642 50.8821 8.26428 50.8821 8.07857C50.8821 6.96428 50.2792 6.31428 49.2587 6.31428C48.1919 6.31428 47.4034 7.19642 47.0787 8.775H50.8358ZM14.7034 17.225H11.3175L13.2655 4.31785L8.85917 17.225H6.54002L6.26172 4.41071L4.17449 17.225H0.97406L3.71066 0.417853H8.62725L8.7664 10.8179L12.0596 0.417853H17.3936L14.7034 17.225ZM23.5162 11.1429C23.1451 11.0964 23.006 11.0964 22.7277 11.0964C20.7796 11.0964 19.8055 11.7929 19.8055 13.1857C19.8055 14.0214 20.3158 14.5786 21.0579 14.5786C22.4494 14.5321 23.4698 13.1393 23.5162 11.1429ZM26.0209 17.225H23.1915L23.2379 15.7857C22.3566 16.9464 21.2434 17.4107 19.6664 17.4107C17.8111 17.4107 16.5587 15.8786 16.5587 13.6964C16.5587 10.3536 18.7851 8.44999 22.5421 8.44999C22.9596 8.44999 23.4234 8.49642 23.9336 8.54285C24.0264 8.07857 24.0728 7.89285 24.0728 7.66071C24.0728 6.77857 23.4698 6.40714 21.8928 6.40714C20.9187 6.40714 19.8055 6.54642 19.0634 6.82499L18.5532 6.96428L18.2285 7.05714L18.6924 3.99285C20.4085 3.48214 21.5217 3.24999 22.7741 3.24999C25.6962 3.24999 27.2732 4.64285 27.2732 7.24285C27.2732 7.93928 27.2268 8.40357 26.9949 9.98214L26.2992 14.8571L26.16 15.7393L26.0673 16.4357L26.0209 16.9464C26.0673 16.8536 26.0209 17.225 26.0209 17.225ZM79.5932 11.1429C79.2685 11.0964 79.083 11.0964 78.8047 11.0964C76.8566 11.0964 75.8826 11.7929 75.8826 13.1857C75.8826 14.0214 76.3928 14.5786 77.1349 14.5786C78.5264 14.5321 79.5468 13.1393 79.5932 11.1429ZM82.0515 17.225H79.2222L79.2685 15.7857C78.3872 16.9464 77.2741 17.4107 75.697 17.4107C73.8417 17.4107 72.5894 15.8786 72.5894 13.6964C72.5894 10.3536 74.8158 8.44999 78.5728 8.44999C78.9438 8.44999 79.4541 8.49642 79.9643 8.54285C80.057 8.07857 80.1034 7.89285 80.1034 7.66071C80.1034 6.77857 79.5004 6.40714 77.9234 6.40714C76.9494 6.40714 75.8362 6.54642 75.0941 6.82499L74.5839 6.96428L74.2592 7.05714L74.723 3.99285C76.4392 3.48214 77.5524 3.24999 78.8047 3.24999C81.7268 3.24999 83.3038 4.64285 83.3038 7.24285C83.3038 7.93928 83.2575 8.40357 83.0255 9.98214L82.3298 14.8107L82.237 15.6929L82.1443 16.3893L82.0979 16.8536L82.0515 17.225ZM91.6064 3.48214C91.5136 3.43571 91.3745 3.43571 91.2817 3.43571C90.1685 3.43571 89.5192 4.03928 88.4524 5.66428L88.777 3.57499H85.6694L83.5821 17.225H87.0145C88.2668 8.86785 88.5451 7.42857 90.2149 7.42857H90.4468C90.6787 6.03571 91.1426 4.73571 91.7456 3.48214H91.6064Z" fill="#E52727"/>
<path fill-rule="evenodd" clip-rule="evenodd" d="M77.2741 30.4572C77.2741 33.5679 76.3 35.3786 74.8158 35.3786C73.7026 35.425 73.0532 34.1714 73.0532 32.3607C73.0532 30.1786 74.0273 27.7179 75.6043 27.7179C76.8566 27.7179 77.2741 29.0643 77.2741 30.4572ZM80.66 30.5036C80.66 27.0679 78.9438 24.375 75.7898 24.375C72.1255 24.375 69.7136 27.625 69.7136 32.4071C69.7136 35.8429 71.1515 38.675 74.5839 38.675C78.0626 38.675 80.66 36.2143 80.66 30.5036ZM70.7804 22.0071L70.2702 25.675C69.1107 25.025 68.3222 24.7929 67.4409 24.7929C65.0753 24.7929 63.4056 27.3929 63.4056 31.0607C63.4056 33.6143 64.5188 35.1464 66.3741 35.1464C67.1626 35.1464 68.0439 34.8679 69.1107 34.2643L68.5541 38.1179C67.3945 38.4893 66.606 38.6286 65.7247 38.6286C62.2924 38.6286 60.1124 35.8429 60.1124 31.3857C60.1124 25.3964 63.0809 21.1714 67.3017 21.1714C67.8583 21.1714 68.3222 21.2179 68.7396 21.3571L70.0383 21.7286C70.4094 21.8214 70.5022 21.8679 70.7804 22.0071ZM49.6762 24.4679C49.5834 24.4214 49.4443 24.4214 49.3515 24.4214C48.2847 24.4214 47.7281 25.025 46.7077 26.65L47.0324 24.5607H44.1566L42.2085 38.2107H45.409C46.5685 29.8536 46.8468 28.4143 48.3775 28.4143C48.4702 28.4143 48.4702 28.4143 48.6094 28.4607C48.8877 26.8357 49.3051 25.6286 49.8153 24.5143L49.6762 24.4679ZM91.3281 38.1179H88.3132L88.4524 36.7714C87.5711 37.8393 86.6434 38.3036 85.4839 38.3036C83.1647 38.3036 81.6341 36.0286 81.6341 32.6393C81.6341 28.0893 83.9996 24.2357 86.829 24.2357C88.0813 24.2357 89.009 24.8393 89.8902 26.1393L90.586 21.3571H93.74L91.3281 38.1179ZM86.597 34.9143C88.1277 34.9143 89.1481 33.0107 89.1481 30.3179C89.1481 28.6 88.5451 27.6714 87.4319 27.6714C85.9941 27.6714 84.9736 29.575 84.9736 32.2679C84.9736 33.9857 85.5302 34.9143 86.597 34.9143ZM19.7592 38.0714C18.6924 38.4429 17.5792 38.6286 16.466 38.6286C12.8945 38.6286 11.0392 36.5393 11.0392 32.5C11.0392 27.8107 13.4047 24.375 16.6051 24.375C19.249 24.375 20.9188 26.2786 20.9188 29.3429C20.9188 30.3179 20.7796 31.3393 20.5013 32.7321H14.1932C14.1468 32.9643 14.1468 33.0571 14.1468 33.15C14.1468 34.7286 15.1209 35.5179 16.9762 35.5179C18.1358 35.5179 19.1562 35.2393 20.2694 34.6357L19.7592 38.0714ZM17.9502 29.9464C17.9502 29.6679 17.9966 29.4357 17.9966 29.25C17.9966 28.1357 17.44 27.4857 16.466 27.4857C15.4456 27.4857 14.7498 28.3679 14.4251 29.9464H17.9502ZM57.7004 38.0714C56.6336 38.4429 55.5205 38.6286 54.4073 38.6286C50.8358 38.6286 48.9805 36.5393 48.9805 32.5C48.9805 27.8107 51.346 24.375 54.5464 24.375C57.1902 24.375 58.86 26.2786 58.86 29.3429C58.86 30.3179 58.7209 31.3393 58.4426 32.7321H52.0881C52.0417 32.9643 52.0417 33.0571 52.0417 33.15C52.0417 34.7286 53.0158 35.5179 54.8711 35.5179C56.0307 35.5179 57.0511 35.2393 58.1643 34.6357L57.7004 38.0714ZM55.9379 29.9464C55.9843 29.6679 55.9843 29.4357 55.9843 29.25C55.9843 28.1357 55.4277 27.4857 54.4536 27.4857C53.4332 27.4857 52.7375 28.3679 52.4128 29.9464H55.9379ZM102.228 38.0714C101.161 38.4429 100.048 38.6286 98.9349 38.6286C95.3634 38.6286 93.5081 36.5393 93.5081 32.5C93.5081 27.8107 95.8736 24.375 99.1205 24.375C101.764 24.375 103.434 26.2786 103.434 29.3429C103.434 30.3179 103.295 31.3393 103.017 32.7321H96.6621C96.6158 32.9643 96.6158 33.0571 96.6158 33.15C96.6158 34.7286 97.5898 35.5179 99.4451 35.5179C100.605 35.5179 101.625 35.2393 102.738 34.6357L102.228 38.0714ZM100.419 29.9464C100.419 29.6679 100.466 29.4357 100.466 29.25C100.466 28.1357 99.909 27.4857 98.9349 27.4857C97.9145 27.4857 97.2187 28.3679 96.8941 29.9464H100.419ZM10.297 25.1179C9.69407 24.7 8.8128 24.3286 7.65322 24.3286C6.3545 24.3286 5.33407 24.6071 5.33407 25.9536C5.33407 28.3679 10.0188 27.4857 10.0188 32.6857C10.0188 37.4214 6.91109 38.675 4.12812 38.675C2.87578 38.675 1.4379 38.2571 0.371094 37.7929L1.1596 34.3107C1.80897 34.9143 3.06131 35.2857 4.1745 35.2857C5.19492 35.2857 6.72556 35.0072 6.72556 33.2429C6.72556 30.5036 2.04088 31.525 2.04088 26.6964C2.04088 22.2857 4.77748 20.9857 7.46769 20.9857C8.95194 20.9857 10.3898 21.2179 11.1783 21.775L10.297 25.1179ZM29.0822 38.0714C28.4328 38.3964 27.5515 38.5822 26.2528 38.5822C23.4698 38.5822 21.7536 35.7964 21.7536 32.4071C21.7536 27.95 24.2583 24.4214 27.9226 24.4214C28.7111 24.4214 29.9634 24.7464 30.9375 25.3036L30.2417 28.5536C29.546 28.0893 28.8502 27.8107 28.1081 27.8107C26.3919 27.8107 25.186 29.3893 25.186 32.175C25.186 33.8 26.0673 35.1 27.4587 35.1C28.2936 35.1 28.8966 34.9143 29.5924 34.4964L29.0822 38.0714ZM41.049 34.6357C40.8634 35.7964 40.7707 37.0036 40.6315 38.1643H37.5702L37.8022 35.9821H37.7558C36.7817 37.4679 35.8077 38.4893 34.0451 38.4893C32.1434 38.4893 31.0766 36.4464 31.0766 33.8C31.0766 32.8714 31.123 32.3607 31.3085 30.9679L32.1898 24.6536H35.6222L34.6945 31.0143C34.6017 31.7107 34.4626 32.3607 34.4626 33.1036C34.4626 33.8929 34.8336 34.7286 35.7613 34.6357C37.1528 34.6357 37.9877 32.9179 38.2196 30.9214L39.1936 24.6536H42.4868L41.049 34.6357ZM105.382 37.9786H104.872V35.75H104.13V35.2393H106.124V35.75H105.382V37.9786ZM108.814 37.9786H108.304V35.7036L107.84 37.9786H107.33L106.866 35.7036V37.9786H106.356V35.2393H107.145L107.562 37.4214H107.609L108.026 35.2393H108.768C108.814 35.2393 108.814 37.9786 108.814 37.9786Z" fill="#F3AE12"/>
</g>
<defs>
<clipPath id="clip0_2924_10247">
<rect width="109" height="39" fill="white"/>
</clipPath>
</defs>
</svg>
