<svg width="102" height="39" viewBox="0 0 102 39" fill="none" xmlns="http://www.w3.org/2000/svg">
<g clip-path="url(#clip0_2924_10211)">
<path d="M48.6784 0C49.5591 1.96147 50.4357 3.92295 51.3243 5.88442C52.6194 8.74033 53.9265 11.5884 55.2117 14.4482C55.2487 14.5406 55.265 14.6398 55.2595 14.739C55.254 14.8382 55.2269 14.9351 55.18 15.0229C53.5814 17.157 51.9629 19.2754 50.3465 21.3977C50.2896 21.4519 50.2294 21.5023 50.166 21.5488V12.0356C49.9676 12.0199 49.8109 12.0003 49.6642 11.9983C47.9862 11.9983 46.3103 12.014 44.6323 11.9866C44.1821 11.9866 44.1008 12.1435 44.1008 12.5436C44.1146 16.7078 44.1008 20.8721 44.1008 25.0363V25.7051C43.8132 25.4737 43.6168 25.3128 43.4105 25.15C42.873 24.7401 42.3137 24.3537 41.798 23.9163C41.6473 23.7888 41.6156 23.524 41.5045 23.2592C41.3835 23.2964 41.2129 23.3455 41.0463 23.3984C39.2851 23.9633 37.506 24.3164 35.6515 23.879C32.6427 23.1689 31.6847 20.5739 32.5554 18.0691C33.1266 16.4313 34.4972 15.731 36.1533 15.5466C37.679 15.3996 39.2162 15.6711 40.5961 16.3312L41.2149 16.6117C41.2308 16.4156 41.2546 16.2861 41.2546 16.1469C41.2546 15.0975 41.2367 14.0481 41.2685 13.0085C41.2804 12.6162 41.1157 12.4514 40.7607 12.3377C38.7773 11.6963 36.7503 11.6923 34.7153 11.863C32.8958 11.9816 31.1346 12.5458 29.5903 13.5048C27.0594 15.123 25.8218 17.4277 26.0201 20.4091C26.2185 23.4377 27.8429 25.509 30.6077 26.7329C32.3214 27.494 34.1402 27.7706 36.0006 27.8294C36.4766 27.8451 36.9566 27.8294 37.4723 27.8294C37.625 29.1573 38.7396 29.8831 39.4081 30.9678C38.7218 31.1855 38.0653 31.3973 37.4048 31.6013L14.0821 38.8215C13.9401 38.8736 13.8011 38.9332 13.6656 39H13.4672C13.4436 38.8854 13.4138 38.7721 13.378 38.6607C11.9433 34.8227 10.512 30.9841 9.08394 27.1448C6.53991 20.3098 3.99389 13.4734 1.44589 6.63567C0.973846 5.36856 0.481965 4.10733 0 2.84414V2.64799C1.62043 2.57345 3.24087 2.51461 4.8613 2.42438C12.4894 1.99547 20.1182 1.56591 27.7477 1.13569C33.6185 0.810089 39.49 0.490369 45.3622 0.176533C46.0564 0.139265 46.7506 0.0608057 47.4448 0H48.6784ZM15.2939 22.9493C16.4364 22.8806 17.5154 22.8649 18.5784 22.7394C20.1652 22.555 21.6487 22.1078 22.9419 21.1388C25.4965 19.2401 25.4985 14.7836 22.3033 13.2066C20.9399 12.5219 19.4404 12.1434 17.912 12.0984C15.1591 12.0219 12.4041 12.0297 9.65119 12.0062C9.54346 12.0115 9.43616 12.0233 9.32988 12.0415V27.5195H15.2801V22.9493H15.2939ZM47.1294 10.4645C49.1941 10.4645 50.5984 9.28758 50.7907 7.3928C50.9752 5.60589 49.8526 4.16029 47.9684 3.81115C47.5141 3.73045 47.0501 3.71723 46.5919 3.77192C45.3701 3.91903 44.3368 4.43489 43.8152 5.59413C42.8215 7.83021 44.0313 10.435 47.1294 10.4645Z" fill="#016B71"/>
<path d="M46.6277 35.3065C46.0263 35.3288 45.4285 35.2062 44.8857 34.9492C44.3429 34.6923 43.8714 34.3087 43.5117 33.8315C42.1055 32.0662 40.6755 30.3126 39.2554 28.5532C38.7536 27.9334 38.6782 27.4763 39.18 26.8585C39.6691 26.2987 40.2067 25.7822 40.7866 25.3148C41.1277 25.0225 41.445 25.2226 41.7406 25.4776C43.1951 26.7408 44.6496 27.9981 46.104 29.2495C46.6634 29.732 46.7923 29.7085 47.1414 29.0887C50.6662 22.8104 54.9551 16.9827 59.9124 11.7355C60.1704 11.4684 60.4827 11.2585 60.8288 11.1196C62.0739 10.634 63.4061 10.4044 64.744 10.4449C64.9264 10.4449 65.2616 10.5547 65.2656 10.6214C65.2656 10.8842 65.2656 11.2569 65.105 11.3962C60.7593 15.072 57.8913 19.8599 54.9698 24.5949C53.0995 27.6254 51.3164 30.7108 49.5789 33.8139C49.0613 34.7358 48.3453 35.1084 47.3972 35.2438C47.1394 35.2732 46.8835 35.2771 46.6277 35.3065Z" fill="#3DAC4D"/>
<path d="M67.7091 17.9259V6.39832H72.6775C76.3547 6.39832 78.4988 8.49121 78.473 12.1278C78.4741 12.9546 78.3539 13.7772 78.116 14.5698C77.4813 16.6019 75.7042 17.8671 73.3558 17.9534C71.5271 18.022 69.6945 17.971 67.8638 17.971C67.8107 17.9617 67.7588 17.9466 67.7091 17.9259ZM70.7913 9.00708V15.3171C71.4399 15.3171 72.0547 15.3603 72.6636 15.3171C74.3237 15.1759 75.125 14.5326 75.3472 13.1791C75.4219 12.6785 75.4372 12.171 75.3928 11.6668C75.2758 10.1663 74.53 9.3523 73.0246 9.13653C72.3046 9.02277 71.5648 9.04631 70.7913 9.00708Z" fill="#016B71"/>
<path d="M80.1946 14.1344H83.1994C83.2204 14.267 83.2502 14.3981 83.2887 14.5267C83.3524 14.752 83.4465 14.9677 83.5683 15.1681C84.1991 16.0175 86.3828 16.09 87.077 15.2996C87.4617 14.8602 87.4022 14.2443 86.8509 13.9677C86.2626 13.7049 85.6553 13.4859 85.0341 13.3126C84.1951 13.036 83.3264 12.8301 82.5092 12.4986C81.335 12.0219 80.5893 11.1648 80.5258 9.85254C80.4504 8.45401 81.0812 7.42031 82.3109 6.79656C83.1672 6.34529 84.1175 6.09596 85.0874 6.06806C86.0573 6.04016 87.0206 6.23444 87.902 6.63572C89.2904 7.22416 90.06 8.48539 89.9529 9.81527H87.0353C86.4621 8.59327 85.7045 8.20686 84.4767 8.51481C84.0166 8.62858 83.6437 8.83649 83.5921 9.36217C83.5406 9.88784 83.9214 10.1311 84.3339 10.2625C85.161 10.5253 86.0079 10.7234 86.8389 10.9706C87.3653 11.1139 87.8814 11.2914 88.384 11.5021C89.5126 12.0082 90.298 12.7987 90.3674 14.1011C90.4487 15.5781 89.9172 16.7589 88.5665 17.4768C87.2158 18.1947 85.76 18.2751 84.2764 18.128C83.3676 18.0685 82.4916 17.7691 81.7396 17.261C81.227 16.9201 80.8142 16.4516 80.5429 15.9027C80.2717 15.3538 80.1515 14.7439 80.1946 14.1344Z" fill="#016B71"/>
<path d="M91.8312 14.1442H94.7785C95.2823 15.6702 96.5437 16.2449 98.1007 15.6663C98.5212 15.5094 98.8524 15.274 98.894 14.7816C98.9357 14.2893 98.6342 13.9696 98.2157 13.8244C97.4224 13.5498 96.6171 13.3537 95.8257 13.0967C95.1388 12.9063 94.4694 12.6589 93.8245 12.3573C91.6427 11.2176 91.5059 8.40882 93.523 7.01029C95.2406 5.81967 98.3208 5.77063 100.048 6.93379C101.056 7.61246 101.617 8.54416 101.582 9.81716H98.6302C98.1364 8.61673 97.1903 8.15775 95.9665 8.53631C95.5699 8.65792 95.2565 8.87172 95.197 9.3209C95.1375 9.77008 95.4271 10.0741 95.8138 10.2016C96.6865 10.4841 97.583 10.6979 98.4597 10.9685C99.0482 11.1383 99.6247 11.3467 100.185 11.5923C102.813 12.8006 102.282 16.1645 100.514 17.2806C99.7097 17.7661 98.8005 18.057 97.8607 18.1299C96.5516 18.2672 95.2605 18.1887 94.0407 17.6532C92.5432 16.9962 91.6824 15.6172 91.8312 14.1442Z" fill="#016B71"/>
<path d="M97.8884 20.319C98.6084 20.319 99.2907 20.2778 99.967 20.319C101.088 20.3994 101.768 21.2134 101.762 22.3883C101.756 23.5632 101.092 24.3733 99.967 24.4538C99.2907 24.5028 98.6064 24.4538 97.8884 24.4538V20.319ZM98.9714 23.5574C99.5664 23.5574 100.161 23.6751 100.485 23.1043C100.624 22.8789 100.693 22.6176 100.682 22.3536C100.671 22.0895 100.581 21.8346 100.423 21.6214C100.064 21.133 99.5208 21.1977 98.9714 21.2624V23.5574Z" fill="#016B71"/>
<path d="M79.8495 22.5315C80.5972 23.0317 80.2898 23.8065 80.5357 24.4381C80.4445 24.4546 80.3525 24.4664 80.26 24.4734C79.4548 24.491 79.4548 24.491 79.3457 23.7143C79.2366 22.9375 79.0283 22.8551 77.9057 22.9983V24.4361H76.8347V20.3307C77.6558 20.3307 78.471 20.2993 79.2842 20.3425C79.7801 20.37 80.2303 20.6014 80.379 21.1271C80.4696 21.3856 80.4662 21.6671 80.3696 21.9234C80.2729 22.1797 80.089 22.3947 79.8495 22.5315ZM77.9157 22.1392H78.7884C78.8572 22.1452 78.9265 22.1374 78.9921 22.1162C79.0578 22.095 79.1184 22.0609 79.1704 22.0159C79.2224 21.9709 79.2646 21.916 79.2945 21.8544C79.3245 21.7928 79.3415 21.7259 79.3446 21.6577C79.3477 21.5894 79.3367 21.5213 79.3125 21.4573C79.2882 21.3934 79.2511 21.335 79.2034 21.2856C79.1557 21.2362 79.0984 21.1968 79.0349 21.1699C78.9714 21.143 78.903 21.1291 78.834 21.129C78.5365 21.1075 78.239 21.129 77.9157 21.129V22.1392Z" fill="#016B71"/>
<path d="M75.7656 20.3484V21.1094H73.5045V21.9136H75.5276V22.7296H73.5144V23.5574H75.7795V24.44H72.4077V20.3484H75.7656Z" fill="#016B71"/>
<path d="M96.9364 23.5613V24.442H93.5388V20.3464H96.9106V21.0977H94.6773V21.9176H96.6865V22.7335H94.6674V23.5613H96.9364Z" fill="#016B71"/>
<path d="M71.553 21.7724C71.0452 21.7469 70.595 21.9352 70.228 21.3801C69.8948 20.8701 68.9646 21.0859 68.7841 21.7116C68.676 22.1626 68.6726 22.6321 68.7742 23.0846C68.8516 23.4651 69.1967 23.673 69.631 23.673C70.1507 23.6613 70.3847 23.3474 70.4839 22.8885H71.5549C71.4677 24.0065 70.6783 24.6538 69.4823 24.591C68.3498 24.5381 67.4989 23.6103 67.4989 22.4079C67.4989 21.2055 68.3597 20.262 69.5279 20.2248C70.6446 20.1757 71.4756 20.7916 71.553 21.7724Z" fill="#016B71"/>
<path d="M90.5756 20.3444V21.1133H88.6041V22.0391H90.2841V22.8237H88.5883V24.4282H87.5153V20.3444H90.5756Z" fill="#016B71"/>
<path d="M59.8489 24.6146L55.9317 25.8248L55.8345 25.7307L58.4525 21.5527L59.8489 24.6146Z" fill="#016B71"/>
<path d="M80.9364 21.2291V20.3503H84.5363V21.2036H83.3204V24.4459H82.1919V21.2291H80.9364Z" fill="#016B71"/>
<path d="M85.3435 24.436V20.3444H86.3868V24.436H85.3435Z" fill="#016B71"/>
<path d="M91.4027 24.438V20.3424H92.446V24.438H91.4027Z" fill="#016B71"/>
<path d="M15.2126 15.2603C16.0754 15.3623 16.847 15.3877 17.5927 15.5584C18.5626 15.784 19.0188 16.4136 19.0327 17.3237C19.0505 18.379 18.6479 19.0302 17.6443 19.2852C16.8886 19.4813 16.0873 19.5088 15.2285 19.6206V15.2603H15.2126Z" fill="#016B71"/>
</g>
<defs>
<clipPath id="clip0_2924_10211">
<rect width="102" height="39" fill="white"/>
</clipPath>
</defs>
</svg>
