<svg width="220" height="51" viewBox="0 0 220 51" fill="none" xmlns="http://www.w3.org/2000/svg">
<path d="M37.5925 19.6791C36.0232 30.724 26.3456 39.0515 15.0116 39.0515H1.49794C0.582503 39.0515 -0.114976 38.2625 0.015801 37.3421L5.02893 1.66545C5.11612 0.920361 5.77001 0.350586 6.51108 0.350586H20.5043C31.7947 0.350586 39.1182 8.63424 37.5925 19.6791ZM19.0221 9.42316H13.5295L10.696 29.9351H16.145C21.8992 29.9351 26.9123 25.5083 27.7406 19.6791C28.5253 13.8499 24.7763 9.42316 19.0221 9.42316Z" fill="white"/>
<path d="M69.8509 10.4316C70.9843 10.4316 71.7253 11.6588 71.1586 12.6669L54.5935 43.3033C52.2395 47.6423 48.1418 50.3597 43.9134 50.3597C41.6901 50.3597 39.1182 49.5708 37.2437 48.2998C36.5462 47.8615 36.3719 46.9411 36.8078 46.2398L39.7285 41.6378C40.1644 40.9803 40.9927 40.7612 41.6901 41.1118C42.2568 41.4186 42.9543 41.5939 43.6082 41.5939C44.8288 41.5939 46.0058 41.0242 46.8341 39.6217L47.4879 38.4821L40.8183 12.3163C40.5567 11.352 41.2978 10.4316 42.2568 10.4316H49.4496C50.1471 10.4316 50.801 10.9576 50.9317 11.6588L54.114 27.2181L61.8299 11.3082C62.0914 10.7823 62.6145 10.4755 63.1812 10.4755H69.8509V10.4316Z" fill="white"/>
<path d="M93.6524 10.4755C100.104 10.4755 102.85 14.0256 101.891 20.4684L99.4938 37.737C99.4066 38.4821 98.7528 39.0519 98.0117 39.0519H91.9959C91.0805 39.0519 90.383 38.263 90.5138 37.3426L92.6498 21.8271C93.0858 18.8468 91.4728 16.8745 88.5521 16.8745C85.5442 16.8745 83.1903 18.8906 82.7107 21.9148L80.5311 37.737C80.4439 38.4821 79.7901 39.0519 79.049 39.0519H73.0332C72.1178 39.0519 71.4203 38.2191 71.5511 37.3426L75.1693 11.7465C75.2564 11.0014 75.9103 10.4316 76.6514 10.4316L93.6524 10.4755Z" fill="white"/>
<path d="M135.501 24.895C135.457 25.2895 135.37 25.8154 135.283 26.2537C135.152 26.955 134.542 27.4371 133.801 27.4371H114.577C115.143 30.1983 117.323 31.8638 120.462 31.8638C122.772 31.8638 124.908 30.9434 126.39 29.8477C127.001 29.4094 127.785 29.4532 128.308 29.9792L131.447 33.091C132.101 33.7484 132.014 34.8003 131.316 35.3701C127.96 38.0437 123.644 39.6215 119.067 39.6215C109.956 39.6215 104.071 33.1348 105.248 24.4567C106.468 16.0416 113.923 9.64258 122.598 9.64258C131.229 9.77406 136.809 16.1731 135.501 24.895ZM115.318 21.8708H126.303C125.911 19.1973 123.993 17.4879 121.421 17.4879C118.849 17.4879 116.538 19.1973 115.318 21.8708Z" fill="white"/>
<path d="M159.128 12.1407L158.518 16.1291C158.387 16.8742 157.777 17.4001 157.036 17.4001C149.407 17.4001 149.538 19.8107 149.015 23.843L147.053 37.7367C146.966 38.4818 146.312 39.0516 145.571 39.0516H139.686C138.771 39.0516 138.073 38.2188 138.204 37.3423L141.822 11.7462C141.909 11.0011 142.563 10.4313 143.304 10.4313H151.064H157.69C158.562 10.3875 159.303 11.2203 159.128 12.1407Z" fill="white"/>
<path d="M183.889 22.3089L174.821 30.5487H186.548C187.42 30.5487 188.073 31.2938 187.943 32.1704L187.202 37.386C187.114 38.0873 186.504 38.6132 185.807 38.6132H163.4C162.528 38.6132 161.874 37.8681 162.005 36.9915L162.659 32.3457C162.703 31.9074 162.921 31.5129 163.226 31.25L176.957 18.4519C178.876 16.6988 181.142 14.3759 181.404 12.2721C181.753 10.0368 180.096 8.54663 177.437 8.54663C175.17 8.54663 173.034 9.64235 171.029 11.3955C170.462 11.9214 169.547 11.8776 169.024 11.3078L165.841 7.75771C165.362 7.23176 165.362 6.39901 165.841 5.82924C169.067 2.32293 173.993 0 179.181 0C186.722 0 191.169 4.95266 190.21 11.7461C189.556 16.5235 186.591 19.8983 183.889 22.3089Z" fill="url(#paint0_linear_1274_6698)"/>
<path d="M217.934 31.644H215.363L214.534 37.3417C214.447 38.043 213.837 38.5689 213.139 38.5689H207.472C206.6 38.5689 205.947 37.8239 206.077 36.9473L206.818 31.644H192.564C191.866 31.644 191.256 31.118 191.169 30.4168L190.428 25.245C190.384 24.8505 190.471 24.4561 190.733 24.1493L209.696 1.2706C210.044 0.83231 210.567 0.569336 211.134 0.569336H218.022C218.893 0.569336 219.547 1.31443 219.417 2.191L216.409 23.5795H218.588C219.46 23.5795 220.114 24.3246 219.983 25.2011L219.286 30.4168C219.242 31.118 218.632 31.644 217.934 31.644ZM207.952 23.6233L209.652 11.3951L199.669 23.6233H207.952Z" fill="url(#paint1_linear_1274_6698)"/>
<defs>
<linearGradient id="paint0_linear_1274_6698" x1="147.539" y1="22.1086" x2="227.255" y2="15.6551" gradientUnits="userSpaceOnUse">
<stop stop-color="#F08762"/>
<stop offset="1" stop-color="#E8435B"/>
</linearGradient>
<linearGradient id="paint1_linear_1274_6698" x1="147.763" y1="24.8739" x2="227.479" y2="18.4204" gradientUnits="userSpaceOnUse">
<stop stop-color="#F08762"/>
<stop offset="1" stop-color="#E8435B"/>
</linearGradient>
</defs>
</svg>
