<svg width="650" height="149" viewBox="0 0 650 149" fill="none" xmlns="http://www.w3.org/2000/svg">
<path d="M111.067 57.9171C106.431 90.3896 77.8384 114.873 44.3519 114.873H4.42569C1.72101 114.873 -0.339698 112.553 0.0466841 109.847L14.858 4.95587C15.1156 2.76526 17.0475 1.09009 19.237 1.09009H60.5799C93.9376 1.09009 115.575 25.4445 111.067 57.9171ZM56.2009 27.764H39.9729L31.6013 88.0702H47.7005C64.7013 88.0702 79.5127 75.0554 81.9598 57.9171C84.2781 40.7788 73.2018 27.764 56.2009 27.764Z" fill="url(#paint0_linear_5245_21838)"/>
<path d="M206.419 30.6224C209.768 30.6224 211.957 34.2305 210.283 37.1943L161.341 127.267C154.386 140.024 142.279 148.013 129.786 148.013C123.218 148.013 115.619 145.694 110.081 141.957C108.02 140.668 107.505 137.962 108.793 135.9L117.422 122.37C118.71 120.437 121.157 119.793 123.218 120.824C124.892 121.726 126.953 122.241 128.885 122.241C132.491 122.241 135.969 120.566 138.416 116.443L140.348 113.092L120.642 36.1634C119.869 33.3285 122.059 30.6224 124.892 30.6224H146.143C148.204 30.6224 150.136 32.1688 150.522 34.2305L159.924 79.9755L182.721 33.1996C183.494 31.6533 185.039 30.7513 186.713 30.7513H206.419V30.6224Z" fill="url(#paint1_linear_5245_21838)"/>
<path d="M276.692 30.7513C295.754 30.7513 303.868 41.1889 301.034 60.1312L293.95 110.902C293.693 113.092 291.761 114.768 289.571 114.768H271.798C269.093 114.768 267.032 112.448 267.419 109.742L273.73 64.1259C275.018 55.3634 270.252 49.5648 261.623 49.5648C252.736 49.5648 245.781 55.4923 244.365 64.3836L237.925 110.902C237.667 113.092 235.735 114.768 233.546 114.768H215.772C213.068 114.768 211.007 112.319 211.393 109.742L222.083 34.4882C222.341 32.2976 224.273 30.6224 226.462 30.6224L276.692 30.7513Z" fill="url(#paint2_linear_5245_21838)"/>
<path d="M400.385 73.2438C400.256 74.4035 399.999 75.9498 399.741 77.2384C399.355 79.3002 397.552 80.7176 395.362 80.7176H338.564C340.238 88.8358 346.678 93.7324 355.951 93.7324C362.777 93.7324 369.088 91.0264 373.467 87.8049C375.27 86.5163 377.589 86.6451 379.134 88.1915L388.407 97.3405C390.339 99.2734 390.082 102.366 388.021 104.041C378.104 111.902 365.353 116.541 351.83 116.541C324.912 116.541 307.525 97.4693 311.002 71.9552C314.608 47.2142 336.632 28.4008 362.262 28.4008C387.763 28.7873 404.249 47.6008 400.385 73.2438ZM340.753 64.3525H373.21C372.05 56.4921 366.384 51.4666 358.785 51.4666C351.186 51.4666 344.36 56.4921 340.753 64.3525Z" fill="url(#paint3_linear_5245_21838)"/>
<path d="M470.221 35.6528L468.418 47.379C468.032 49.5696 466.229 51.1159 464.039 51.1159C441.5 51.1159 441.887 58.2032 440.341 70.0582L434.545 110.907C434.288 113.097 432.356 114.772 430.166 114.772H412.779C410.075 114.772 408.014 112.324 408.4 109.747L419.09 34.4931C419.348 32.3025 421.28 30.6273 423.469 30.6273H446.394H465.971C468.547 30.4984 470.737 32.9468 470.221 35.6528Z" fill="url(#paint4_linear_5245_21838)"/>
<path d="M543.298 65.5894L516.509 89.8149H551.154C553.73 89.8149 555.662 92.0055 555.276 94.5827L553.086 109.917C552.828 111.979 551.025 113.525 548.965 113.525H482.764C480.189 113.525 478.257 111.334 478.643 108.757L480.575 95.0981C480.704 93.8096 481.348 92.6498 482.249 91.8767L522.819 54.2498C528.486 49.0954 535.184 42.2658 535.956 36.0806C536.987 29.5088 532.093 25.1276 524.236 25.1276C517.539 25.1276 511.228 28.349 505.303 33.5034C503.629 35.0497 500.924 34.9209 499.379 33.2457L489.977 22.8081C488.56 21.2618 488.56 18.8135 489.977 17.1383C499.508 6.82954 514.061 0 529.388 0C551.669 0 564.806 14.5611 561.973 34.5343C560.041 48.5799 551.283 58.5021 543.298 65.5894Z" fill="url(#paint5_linear_5245_21838)"/>
<path d="M643.897 93.0984H636.299L633.851 109.85C633.594 111.912 631.791 113.458 629.73 113.458H612.987C610.411 113.458 608.479 111.268 608.865 108.69L611.055 93.0984H568.939C566.879 93.0984 565.075 91.552 564.818 89.4903L562.628 74.2849C562.5 73.1252 562.757 71.9654 563.53 71.0634L619.555 3.79881C620.586 2.51022 622.131 1.73706 623.806 1.73706H644.155C646.731 1.73706 648.663 3.92767 648.276 6.50486L639.39 69.3882H645.829C648.405 69.3882 650.337 71.5788 649.951 74.156L647.89 89.4903C647.761 91.552 645.958 93.0984 643.897 93.0984ZM614.404 69.5171L619.426 33.5653L589.933 69.5171H614.404V69.5171Z" fill="url(#paint6_linear_5245_21838)"/>
<defs>
<linearGradient id="paint0_linear_5245_21838" x1="6.4223" y1="17.6123" x2="113.692" y2="34.6699" gradientUnits="userSpaceOnUse">
<stop stop-color="#F7435C"/>
<stop offset="1" stop-color="#FD8B64"/>
</linearGradient>
<linearGradient id="paint1_linear_5245_21838" x1="114.002" y1="47.6685" x2="213.228" y2="61.7443" gradientUnits="userSpaceOnUse">
<stop stop-color="#F7435C"/>
<stop offset="1" stop-color="#FD8B64"/>
</linearGradient>
<linearGradient id="paint2_linear_5245_21838" x1="216.537" y1="42.841" x2="302.813" y2="57.8334" gradientUnits="userSpaceOnUse">
<stop stop-color="#F7435C"/>
<stop offset="1" stop-color="#FD8B64"/>
</linearGradient>
<linearGradient id="paint3_linear_5245_21838" x1="315.759" y1="41.1994" x2="402.394" y2="55.5953" gradientUnits="userSpaceOnUse">
<stop stop-color="#F7435C"/>
<stop offset="1" stop-color="#FD8B64"/>
</linearGradient>
<linearGradient id="paint4_linear_5245_21838" x1="411.916" y1="42.8417" x2="472.073" y2="50.0172" gradientUnits="userSpaceOnUse">
<stop stop-color="#F7435C"/>
<stop offset="1" stop-color="#FD8B64"/>
</linearGradient>
<linearGradient id="paint5_linear_5245_21838" x1="483.411" y1="16.4848" x2="564.751" y2="26.2095" gradientUnits="userSpaceOnUse">
<stop stop-color="#F7435C"/>
<stop offset="1" stop-color="#FD8B64"/>
</linearGradient>
<linearGradient id="paint6_linear_5245_21838" x1="567.624" y1="17.9599" x2="652.352" y2="28.7009" gradientUnits="userSpaceOnUse">
<stop stop-color="#F7435C"/>
<stop offset="1" stop-color="#FD8B64"/>
</linearGradient>
</defs>
</svg>
