<svg width="90" height="39" viewBox="0 0 90 39" fill="none" xmlns="http://www.w3.org/2000/svg">
<g clip-path="url(#clip0_2924_10230)">
<path d="M36.4718 20.7806L32.0116 32.6568L31.5338 30.2405C30.4187 27.2805 28.0048 24.1755 25.1989 22.907L29.2914 38.1659H34.1314L41.324 20.7565H36.4718V20.7806Z" fill="#11559C"/>
<path d="M40.3071 38.2022L43.1621 20.7565H47.7325L44.8775 38.2022H40.3071Z" fill="#11559C"/>
<path d="M61.4438 21.1914C60.5371 20.8411 59.1157 20.4545 57.3512 20.4545C52.8298 20.4545 49.6562 22.8224 49.6317 26.2053C49.6072 28.7182 51.8986 30.1076 53.6263 30.9412C55.4152 31.799 56.0034 32.3427 56.0034 33.1038C55.9911 34.2757 54.582 34.8073 53.2709 34.8073C51.4452 34.8073 50.4772 34.5415 48.9701 33.9012L48.3819 33.6233L47.7448 37.5257C48.8108 38.0089 50.7835 38.4318 52.8421 38.4559C57.6331 38.4559 60.7576 36.1121 60.7944 32.4997C60.8189 30.5063 59.5936 29.0082 56.9591 27.7638C55.3662 26.9543 54.386 26.4227 54.3982 25.6012C54.3982 24.8763 55.2192 24.1031 57.0204 24.1031C58.5153 24.0789 59.5936 24.4172 60.4391 24.7797L60.8434 24.985L61.4438 21.1914Z" fill="#11559C"/>
<path d="M73.1578 20.7806H69.6289C68.5384 20.7806 67.7174 21.0827 67.2273 22.2304L60.4513 38.2143H65.2423C65.2423 38.2143 66.0265 36.0638 66.2103 35.5926C66.7372 35.5926 71.3934 35.6047 72.0551 35.6047C72.2021 36.2087 72.6065 38.2143 72.6065 38.2143H76.8583L73.1578 20.7806ZM67.5214 32.0165C67.9012 31.0137 69.3349 27.1355 69.3349 27.1355C69.3103 27.1838 69.7147 26.1328 69.9475 25.4683L70.2538 26.9664C70.2538 26.9664 71.1361 31.1345 71.3199 32.0044C70.6092 32.0165 68.4159 32.0165 67.5214 32.0165Z" fill="#11559C"/>
<path d="M27.8578 20.7686H20.4937L20.4446 21.0706C26.1669 22.5204 29.9531 26.0603 31.5215 30.2525L29.9286 22.2304C29.659 21.131 28.8503 20.8048 27.8578 20.7686Z" fill="#F2A724"/>
<path d="M6.67207 16.5521H3.76806L0.398438 1.61935L3.62102 1.08777L5.92462 12.7706L11.7816 1.24483H14.8694L6.67207 16.5521Z" fill="#11559C"/>
<path d="M21.8292 11.6711H14.8817C14.6856 13.7491 15.6659 14.6553 17.3323 14.6553C18.7169 14.6553 19.9422 14.1478 21.2533 13.3263L21.2411 15.4043C19.9545 16.2017 18.4596 16.7091 16.7074 16.7091C13.6809 16.7091 11.6836 15.0056 12.284 11.1637C12.8231 7.6963 15.2615 5.59412 18.0798 5.59412C21.3269 5.59412 22.4051 7.99834 21.9395 11.0308C21.915 11.2483 21.8415 11.5141 21.8292 11.6711ZM17.7367 7.43051C16.6584 7.43051 15.6536 8.26413 15.188 10.016H19.4889C19.5624 8.36079 19.0355 7.43051 17.7367 7.43051Z" fill="#11559C"/>
<path d="M26.3507 10.3663L25.3949 16.4796H22.7115L24.3779 5.81158H26.6693V7.95001C27.576 6.71769 28.8136 5.67868 30.5168 5.58203L30.529 8.2158C28.8136 8.33662 27.2942 9.21857 26.3507 10.3663Z" fill="#11559C"/>
<path d="M30.48 16.4796L32.1464 5.81161H34.8299L33.1757 16.4796H30.48ZM33.7883 4.02355C32.8939 4.02355 32.2689 3.40739 32.416 2.52544C32.563 1.61932 33.3717 0.979004 34.2662 0.979004C35.1362 0.979004 35.7611 1.61932 35.6141 2.52544C35.4793 3.40739 34.6706 4.02355 33.7883 4.02355Z" fill="#11559C"/>
<path d="M42.2798 2.90002C41.3608 2.90002 40.8094 3.2987 40.6624 4.25314L40.4173 5.82374H42.4759V7.98634H40.0743L38.7509 16.4796H36.0797L37.4031 7.97426H35.8347L36.1777 5.81166H37.7461L38.028 3.97527C38.3956 1.60729 40.062 0.725342 42.2798 0.725342C42.7454 0.725342 43.1008 0.773668 43.3704 0.809912L43.3949 2.97251C43.1253 2.94834 42.7332 2.90002 42.2798 2.90002Z" fill="#11559C"/>
<path d="M42.3043 16.4796L43.9708 5.81161H46.6542L45 16.4796H42.3043ZM45.6249 4.02355C44.7305 4.02355 44.1055 3.40739 44.2403 2.52544C44.3874 1.61932 45.1961 0.979004 46.0906 0.979004C46.9605 0.979004 47.5854 1.61932 47.4384 2.52544C47.3036 3.40739 46.4949 4.02355 45.6249 4.02355Z" fill="#11559C"/>
<path d="M57.0939 11.6711H50.1464C49.9626 13.7491 50.9306 14.6553 52.597 14.6553C53.9816 14.6553 55.207 14.1478 56.518 13.3263L56.5058 15.4043C55.2192 16.2017 53.7243 16.7091 51.9721 16.7091C48.9456 16.7091 46.9483 15.0056 47.5487 11.1637C48.0879 7.6963 50.5262 5.59412 53.3445 5.59412C56.5916 5.59412 57.6698 7.99834 57.2042 11.0308C57.1797 11.2483 57.1062 11.5141 57.0939 11.6711ZM53.0014 7.43051C51.9231 7.43051 50.9183 8.26413 50.4527 10.016H54.7536C54.8271 8.36079 54.3002 7.43051 53.0014 7.43051Z" fill="#11559C"/>
<path d="M65.0462 16.4796L65.0585 14.9936C64.1517 15.8997 62.9754 16.6971 61.4805 16.6971C59.2137 16.6971 57.6575 15.0419 58.2212 11.4416C58.8461 7.46677 61.3335 5.70287 63.8454 5.70287C64.8747 5.70287 65.6834 5.8841 66.296 6.10156L67.1047 0.954836L69.8617 0.531982L67.3743 16.4796H65.0462ZM65.9529 8.28832C65.328 7.9742 64.8379 7.82922 63.9189 7.82922C62.5098 7.82922 61.2967 8.9528 60.9414 11.2966C60.6228 13.3746 61.358 14.3412 62.5466 14.3412C63.5268 14.3412 64.3845 13.7612 65.2423 12.8793L65.9529 8.28832Z" fill="#11559C"/>
<path d="M75.5962 16.5883C74.3219 16.5883 73.2804 16.3829 72.3246 16.0567L74.0891 4.72428L76.1721 4.41016L75.4125 9.31525C76.0251 8.78367 76.8706 8.24 77.8998 8.24C79.6275 8.24 80.7916 9.50856 80.3627 12.2269C79.8971 15.199 78.0346 16.5883 75.5962 16.5883ZM77.1034 10.0039C76.4295 10.0039 75.7433 10.4509 75.1429 11.055L74.567 14.7157C74.9713 14.8607 75.2409 14.9332 75.8168 14.9332C77.1034 14.9332 78.0101 14.1599 78.2919 12.3236C78.537 10.7771 78.0101 10.0039 77.1034 10.0039Z" fill="#11559C"/>
<path d="M85.166 16.9266C84.1245 18.9201 83.0952 19.5362 81.5145 19.5362C81.1592 19.5362 80.9631 19.5 80.7793 19.4517L80.7671 17.7965C81.0244 17.869 81.3062 17.9173 81.6983 17.9173C82.2865 17.9173 82.8134 17.6515 83.1565 17.0595L83.426 16.5279L81.6983 8.56621L83.8671 8.30042L84.8719 14.0512L87.5799 8.40915H89.6016L85.166 16.9266Z" fill="#11559C"/>
</g>
<defs>
<clipPath id="clip0_2924_10230">
<rect width="90" height="39" fill="white"/>
</clipPath>
</defs>
</svg>
